<svg width="12" height="12" viewBox="0 0 12 12" fill="none" xmlns="http://www.w3.org/2000/svg">
<g clip-path="url(#clip0_222_1117)">
<path d="M11.9939 6.11234C11.9939 5.6207 11.9531 5.26194 11.8647 4.88989L6.11914 4.88989L6.11914 7.10888L9.49166 7.10888C9.42369 7.66034 9.05652 8.49081 8.24056 9.04885L8.22913 9.12314L10.0458 10.4982L10.1716 10.5105C11.3275 9.46743 11.9939 7.93272 11.9939 6.11234Z" fill="#4285F4"/>
<path d="M6.11914 11.9587C7.77139 11.9587 9.15847 11.4271 10.1716 10.5103L8.24056 9.04866C7.72381 9.40078 7.03025 9.6466 6.11914 9.6466C4.50087 9.6466 3.12739 8.60356 2.63778 7.16187L2.56602 7.16782L0.677047 8.59623L0.652344 8.66333C1.65866 10.6166 3.7257 11.9587 6.11914 11.9587Z" fill="#34A853"/>
<path d="M2.63817 7.1619C2.50898 6.78985 2.43422 6.3912 2.43422 5.9793C2.43422 5.56737 2.50898 5.16875 2.63138 4.79671L2.62795 4.71747L0.715313 3.26611L0.652734 3.2952C0.237984 4.10575 -7.25447e-09 5.01596 -1.12483e-08 5.9793C-1.52421e-08 6.94265 0.237984 7.85282 0.652734 8.66336L2.63817 7.1619Z" fill="#FBBC05"/>
<path d="M6.11914 2.31202C7.26823 2.31202 8.04336 2.79701 8.48534 3.20231L10.2124 1.55464C9.15172 0.591298 7.77139 -6.60799e-08 6.11914 -5.07435e-08C3.7257 -2.85273e-08 1.65866 1.34203 0.652344 3.29528L2.63098 4.79679C3.12739 3.3551 4.50087 2.31202 6.11914 2.31202Z" fill="#EB4335"/>
</g>
<defs>
<clipPath id="clip0_222_1117">
<rect width="12" height="12" fill="white"/>
</clipPath>
</defs>
</svg>
