<?xml version="1.0" standalone="no"?>
<!DOCTYPE svg PUBLIC "-//W3C//DTD SVG 20010904//EN"
 "http://www.w3.org/TR/2001/REC-SVG-20010904/DTD/svg10.dtd">
<svg version="1.0" xmlns="http://www.w3.org/2000/svg"
 width="1920.000000pt" height="1920.000000pt" viewBox="0 0 1920.000000 1920.000000"
 preserveAspectRatio="xMidYMid meet">
<metadata>
Created by potrace 1.14, written by Peter Selinger 2001-2017
</metadata>
<g transform="translate(0.000000,1920.000000) scale(0.100000,-0.100000)"
fill="#000000" stroke="none">
<path d="M9325 13316 c-11 -18 -83 -133 -160 -255 -77 -122 -147 -232 -155
-246 -22 -35 -232 -370 -413 -657 l-155 -246 54 -89 c54 -86 196 -312 559
-888 99 -157 185 -293 190 -303 52 -93 115 -172 115 -144 0 4 25 45 55 92 130
204 185 290 236 373 30 48 71 113 91 145 21 31 47 73 58 92 11 19 28 47 38 62
215 344 269 430 292 463 15 22 48 75 74 118 l47 78 -158 252 c-87 138 -162
259 -168 268 -16 27 -134 214 -326 518 -98 156 -179 285 -179 286 0 3 -69 107
-74 112 0 1 -10 -13 -21 -31z"/>
<path d="M7592 10558 c-46 -73 -151 -239 -232 -368 -82 -129 -155 -246 -163
-260 -13 -23 -287 -459 -362 -575 -49 -76 -346 -549 -376 -597 -14 -24 -108
-173 -209 -333 -163 -258 -249 -395 -330 -525 -14 -22 -68 -108 -120 -191 -52
-82 -100 -157 -105 -167 -6 -9 -22 -35 -36 -57 -14 -22 -160 -254 -324 -515
-163 -261 -308 -491 -321 -510 -12 -19 -102 -161 -198 -315 l-176 -280 1657
-3 c1317 -2 1660 1 1669 10 7 7 90 137 185 288 95 151 189 302 210 335 68 107
153 244 194 310 22 36 100 161 174 277 74 117 156 247 181 288 l47 75 -753 0
c-510 0 -754 3 -754 10 1 5 24 47 53 92 29 45 126 201 216 345 91 145 177 281
192 303 15 22 64 101 110 175 46 74 86 137 90 140 3 3 8 10 10 15 2 6 29 50
59 98 30 48 62 99 70 112 13 22 104 166 198 315 19 30 55 86 80 125 25 38 45
74 45 80 0 9 -104 180 -198 325 -48 75 -370 586 -400 636 -11 19 -67 108 -125
199 -58 91 -114 181 -125 199 -52 87 -41 92 -133 -56z"/>
<path d="M10977 10628 c-21 -35 -127 -205 -236 -378 -110 -173 -248 -394 -309
-490 -60 -96 -156 -248 -212 -338 -91 -143 -102 -165 -92 -185 6 -12 97 -157
201 -322 265 -418 315 -497 326 -518 8 -14 156 -248 379 -602 24 -38 68 -108
97 -155 29 -47 76 -121 104 -165 66 -102 515 -816 536 -852 9 -16 107 -171
218 -346 110 -175 201 -322 201 -327 0 -5 4 -10 8 -12 4 -1 18 -20 31 -40 l23
-38 899 0 c494 0 899 3 899 7 0 5 -96 159 -185 298 -18 28 -101 160 -185 295
-84 135 -160 256 -170 270 -9 14 -50 79 -92 145 -41 66 -144 230 -229 364 -85
134 -163 259 -174 277 -33 54 -96 156 -131 209 -17 28 -148 235 -289 460 -227
361 -303 483 -521 828 -27 42 -56 88 -64 101 -80 129 -142 227 -195 311 -36
55 -79 125 -96 155 -18 30 -35 57 -38 60 -3 3 -11 14 -17 25 -7 11 -55 88
-108 170 -53 83 -101 159 -106 170 -6 11 -18 32 -28 47 -9 15 -66 105 -126
200 -60 95 -123 196 -141 223 -18 28 -56 87 -84 133 -29 45 -54 82 -55 82 -1
0 -19 -28 -39 -62z"/>
</g>
</svg>
