<svg width="41" height="41" viewBox="0 0 41 41" fill="none" xmlns="http://www.w3.org/2000/svg">
<circle cx="20.5" cy="20.5" r="20" stroke="#E8E8FA"/>
<g clip-path="url(#clip0_560_7781)">
<path d="M25.3592 20.1568C25.3369 17.5014 27.3892 16.2265 27.482 16.1644C26.3271 14.3592 24.5298 14.1119 23.8887 14.0828C22.36 13.9175 20.9043 15.0442 20.1295 15.0442C19.3546 15.0442 18.1564 14.1066 16.8889 14.1331C15.2204 14.1595 13.6842 15.1686 12.8252 16.7634C11.0935 19.973 12.3833 24.7298 14.0692 27.3351C14.8948 28.6086 15.8776 30.0434 17.1699 29.9905C18.4151 29.9376 18.8855 29.1309 20.3882 29.1309C21.8909 29.1309 22.3142 29.9905 23.63 29.9654C24.968 29.9376 25.8172 28.6641 26.6366 27.3866C27.5823 25.9081 27.9734 24.4773 27.9957 24.4019C27.966 24.3886 25.3864 23.332 25.3592 20.1568Z" fill="black"/>
<path d="M22.8873 12.3593C23.573 11.472 24.036 10.2381 23.9085 9.0083C22.9206 9.05066 21.725 9.71186 21.0157 10.5992C20.3807 11.3835 19.8237 12.6398 19.9747 13.8445C21.0763 13.9358 22.2015 13.2454 22.8873 12.3593Z" fill="black"/>
</g>
<defs>
<clipPath id="clip0_560_7781">
<rect width="16" height="21" fill="white" transform="translate(12 9)"/>
</clipPath>
</defs>
</svg>
