<svg width="11" height="10" viewBox="0 0 11 10" fill="none" xmlns="http://www.w3.org/2000/svg">
<g clip-path="url(#clip0_294_40)">
<path d="M5.5 0L0 4.95H1.65V9.35H9.35V4.95H11L5.5 0ZM3.85 2.75H6.05C6.34174 2.75 6.62153 2.86589 6.82782 3.07218C7.03411 3.27847 7.15 3.55826 7.15 3.85V4.675C7.15 4.8938 7.06308 5.10365 6.90836 5.25836C6.75365 5.41308 6.5438 5.5 6.325 5.5C6.5438 5.5 6.75365 5.58692 6.90836 5.74164C7.06308 5.89635 7.15 6.1062 7.15 6.325V7.15C7.15 7.44174 7.03411 7.72153 6.82782 7.92782C6.62153 8.13411 6.34174 8.25 6.05 8.25H3.85V2.75ZM4.95 3.85V4.95H6.05V3.85H4.95ZM4.95 6.05V7.15H6.05V6.05H4.95Z" fill="#575757"/>
</g>
<defs>
<clipPath id="clip0_294_40">
<rect width="11" height="9.35" fill="white"/>
</clipPath>
</defs>
</svg>
