<svg width="11" height="11" viewBox="0 0 11 11" fill="none" xmlns="http://www.w3.org/2000/svg">
<mask id="mask0_217_14961" style="mask-type:alpha" maskUnits="userSpaceOnUse" x="0" y="0" width="11" height="11">
<rect width="10.1436" height="10.1436" fill="#D9D9D9"/>
</mask>
<g mask="url(#mask0_217_14961)">
<path d="M1.26794 9.29825V5.07177L1.93362 3.11702C1.98997 2.93387 2.09563 2.79116 2.2506 2.68888C2.40557 2.58688 2.57111 2.53588 2.74721 2.53588C2.80357 2.53588 2.85992 2.54109 2.91627 2.55152C2.97263 2.56222 3.02898 2.58167 3.08533 2.60984L4.83932 3.38117H5.91707V4.22647H4.64913L3.50798 3.72986L2.95854 5.38875V9.29825H1.26794ZM3.80383 8.0303V7.18501H8.87561V8.0303H3.80383ZM8.24164 6.76236C8.06553 6.76236 7.91592 6.70065 7.79279 6.57724C7.66937 6.45411 7.60767 6.30449 7.60767 6.12839C7.60767 5.95228 7.66937 5.80267 7.79279 5.67953C7.91592 5.55612 8.06553 5.49442 8.24164 5.49442C8.41774 5.49442 8.56736 5.55612 8.69049 5.67953C8.8139 5.80267 8.87561 5.95228 8.87561 6.12839C8.87561 6.30449 8.8139 6.45411 8.69049 6.57724C8.56736 6.70065 8.41774 6.76236 8.24164 6.76236ZM5.49443 6.76236C5.26197 6.76236 5.06304 6.67952 4.89765 6.51384C4.73197 6.34845 4.64913 6.14952 4.64913 5.91706V5.49442H3.80383V4.64912H5.07178C5.19153 4.64912 5.29198 4.68955 5.37313 4.77042C5.45399 4.85157 5.49443 4.95202 5.49443 5.07177V5.49442H6.33972V4.64912H7.18502V5.91706C7.18502 6.14952 7.10232 6.34845 6.93692 6.51384C6.77125 6.67952 6.57218 6.76236 6.33972 6.76236H5.49443ZM3.38118 2.11323C3.14873 2.11323 2.9498 2.03039 2.78441 1.86471C2.61873 1.69932 2.53589 1.50039 2.53589 1.26793C2.53589 1.03548 2.61873 0.83641 2.78441 0.670732C2.9498 0.505336 3.14873 0.422638 3.38118 0.422638C3.61364 0.422638 3.81271 0.505336 3.97839 0.670732C4.14378 0.83641 4.22648 1.03548 4.22648 1.26793C4.22648 1.50039 4.14378 1.69932 3.97839 1.86471C3.81271 2.03039 3.61364 2.11323 3.38118 2.11323Z" fill="#959596"/>
</g>
</svg>
