<svg width="17" height="17" viewBox="0 0 17 17" fill="none" xmlns="http://www.w3.org/2000/svg">
<mask id="mask0_217_14377" style="mask-type:alpha" maskUnits="userSpaceOnUse" x="0" y="0" width="17" height="17">
<rect width="17" height="17" fill="#D9D9D9"/>
</mask>
<g mask="url(#mask0_217_14377)">
<path d="M2.125 15.5833V8.49992L3.24062 5.22388C3.33507 4.91693 3.51215 4.67775 3.77187 4.50634C4.0316 4.33539 4.30903 4.24992 4.60417 4.24992C4.69861 4.24992 4.79306 4.25865 4.8875 4.27613C4.98194 4.29407 5.07639 4.32665 5.17083 4.37388L8.11042 5.66658H9.91667V7.08325H7.79167L5.87917 6.25096L4.95833 9.03117V15.5833H2.125ZM6.375 13.4583V12.0416H14.875V13.4583H6.375ZM13.8125 11.3333C13.5174 11.3333 13.2666 11.2298 13.0602 11.023C12.8534 10.8166 12.75 10.5659 12.75 10.2708C12.75 9.97561 12.8534 9.72486 13.0602 9.5185C13.2666 9.31167 13.5174 9.20825 13.8125 9.20825C14.1076 9.20825 14.3584 9.31167 14.5647 9.5185C14.7716 9.72486 14.875 9.97561 14.875 10.2708C14.875 10.5659 14.7716 10.8166 14.5647 11.023C14.3584 11.2298 14.1076 11.3333 13.8125 11.3333ZM9.20833 11.3333C8.81875 11.3333 8.48536 11.1944 8.20817 10.9168C7.9305 10.6396 7.79167 10.3062 7.79167 9.91658V9.20825H6.375V7.79158H8.5C8.70069 7.79158 8.86904 7.85935 9.00504 7.99488C9.14057 8.13088 9.20833 8.29922 9.20833 8.49992V9.20825H10.625V7.79158H12.0417V9.91658C12.0417 10.3062 11.9031 10.6396 11.6259 10.9168C11.3482 11.1944 11.0146 11.3333 10.625 11.3333H9.20833ZM5.66667 3.54159C5.27708 3.54159 4.94369 3.40275 4.6665 3.12509C4.38883 2.84789 4.25 2.5145 4.25 2.12492C4.25 1.73534 4.38883 1.40171 4.6665 1.12404C4.94369 0.846849 5.27708 0.708252 5.66667 0.708252C6.05625 0.708252 6.38987 0.846849 6.66754 1.12404C6.94474 1.40171 7.08333 1.73534 7.08333 2.12492C7.08333 2.5145 6.94474 2.84789 6.66754 3.12509C6.38987 3.40275 6.05625 3.54159 5.66667 3.54159Z" fill="#959596"/>
</g>
</svg>
