<svg width="11" height="11" viewBox="0 0 11 11" fill="none" xmlns="http://www.w3.org/2000/svg">
<mask id="mask0_217_14600" style="mask-type:alpha" maskUnits="userSpaceOnUse" x="0" y="0" width="11" height="11">
<rect width="10.1436" height="10.1436" fill="#D9D9D9"/>
</mask>
<g mask="url(#mask0_217_14600)">
<path d="M1.26794 9.29822V5.07174L1.93362 3.11699C1.98997 2.93384 2.09563 2.79113 2.2506 2.68885C2.40557 2.58685 2.57111 2.53585 2.74721 2.53585C2.80357 2.53585 2.85992 2.54106 2.91627 2.55149C2.97263 2.56219 3.02898 2.58163 3.08533 2.60981L4.83932 3.38114H5.91707V4.22644H4.64913L3.50798 3.72983L2.95854 5.38872V9.29822H1.26794ZM3.80383 8.03027V7.18498H8.87561V8.03027H3.80383ZM8.24164 6.76233C8.06553 6.76233 7.91592 6.70062 7.79279 6.57721C7.66937 6.45408 7.60767 6.30446 7.60767 6.12836C7.60767 5.95225 7.66937 5.80264 7.79279 5.6795C7.91592 5.55609 8.06553 5.49438 8.24164 5.49438C8.41774 5.49438 8.56736 5.55609 8.69049 5.6795C8.8139 5.80264 8.87561 5.95225 8.87561 6.12836C8.87561 6.30446 8.8139 6.45408 8.69049 6.57721C8.56736 6.70062 8.41774 6.76233 8.24164 6.76233ZM5.49443 6.76233C5.26197 6.76233 5.06304 6.67949 4.89765 6.51381C4.73197 6.34842 4.64913 6.14949 4.64913 5.91703V5.49438H3.80383V4.64909H5.07178C5.19153 4.64909 5.29198 4.68952 5.37313 4.77039C5.45399 4.85154 5.49443 4.95199 5.49443 5.07174V5.49438H6.33972V4.64909H7.18502V5.91703C7.18502 6.14949 7.10232 6.34842 6.93692 6.51381C6.77125 6.67949 6.57218 6.76233 6.33972 6.76233H5.49443ZM3.38118 2.1132C3.14873 2.1132 2.9498 2.03036 2.78441 1.86468C2.61873 1.69929 2.53589 1.50036 2.53589 1.2679C2.53589 1.03545 2.61873 0.83638 2.78441 0.670702C2.9498 0.505306 3.14873 0.422607 3.38118 0.422607C3.61364 0.422607 3.81271 0.505306 3.97839 0.670702C4.14378 0.83638 4.22648 1.03545 4.22648 1.2679C4.22648 1.50036 4.14378 1.69929 3.97839 1.86468C3.81271 2.03036 3.61364 2.1132 3.38118 2.1132Z" fill="#959596"/>
</g>
</svg>
