<svg width="11" height="11" viewBox="0 0 11 11" fill="none" xmlns="http://www.w3.org/2000/svg">
<mask id="mask0_217_14954" style="mask-type:alpha" maskUnits="userSpaceOnUse" x="0" y="0" width="11" height="11">
<rect width="10.1436" height="10.1436" fill="#D9D9D9"/>
</mask>
<g mask="url(#mask0_217_14954)">
<path d="M0.845276 8.03032V5.49444C0.845276 5.30424 0.884019 5.13166 0.961504 4.97669C1.03899 4.82172 1.14113 4.68436 1.26792 4.56461V3.3812C1.26792 3.02899 1.3912 2.72961 1.63774 2.48307C1.88429 2.23652 2.18366 2.11325 2.53587 2.11325H4.22646C4.38848 2.11325 4.53992 2.14326 4.68081 2.20327C4.82169 2.26301 4.95201 2.34571 5.07176 2.45137C5.19151 2.34571 5.32182 2.26301 5.46271 2.20327C5.60359 2.14326 5.75504 2.11325 5.91705 2.11325H7.60765C7.95985 2.11325 8.25923 2.23652 8.50577 2.48307C8.75232 2.72961 8.87559 3.02899 8.87559 3.3812V4.56461C9.00238 4.68436 9.10452 4.82172 9.18201 4.97669C9.2595 5.13166 9.29824 5.30424 9.29824 5.49444V8.03032H8.45294V7.18503H1.69057V8.03032H0.845276ZM5.4944 4.22649H8.03029V3.3812C8.03029 3.26144 7.98972 3.161 7.90857 3.07985C7.8277 2.99898 7.7274 2.95855 7.60765 2.95855H5.91705C5.7973 2.95855 5.69699 2.99898 5.61613 3.07985C5.53498 3.161 5.4944 3.26144 5.4944 3.3812V4.22649ZM2.11322 4.22649H4.64911V3.3812C4.64911 3.26144 4.60868 3.161 4.52781 3.07985C4.44666 2.99898 4.34621 2.95855 4.22646 2.95855H2.53587C2.41612 2.95855 2.31567 2.99898 2.23452 3.07985C2.15365 3.161 2.11322 3.26144 2.11322 3.3812V4.22649ZM1.69057 6.33973H8.45294V5.49444C8.45294 5.37469 8.41237 5.27424 8.33122 5.19309C8.25035 5.11222 8.15004 5.07179 8.03029 5.07179H2.11322C1.99347 5.07179 1.89302 5.11222 1.81187 5.19309C1.73101 5.27424 1.69057 5.37469 1.69057 5.49444V6.33973Z" fill="#959596"/>
</g>
</svg>
