<svg width="18" height="18" viewBox="0 0 18 18" fill="none" xmlns="http://www.w3.org/2000/svg">
<g clip-path="url(#clip0_319_2004)">
<path d="M17.9707 12.1282C17.9985 12.054 18.0083 11.9722 17.9827 11.8897L16.5 7.07095V2.62499C16.5 1.5915 15.6592 0.75 14.625 0.75H3.375C2.34074 0.75 1.50001 1.5915 1.50001 2.62499V7.07099L0.0172617 11.8897C-0.00822656 11.9715 0.00151172 12.0532 0.02925 12.1282C0.01125 12.2077 0 12.2895 0 12.375V15.375V16.875C0 17.082 0.168012 17.25 0.375012 17.25H1.87502C2.08199 17.25 2.25 17.082 2.25 16.875V15.75H15.75V16.875C15.75 17.082 15.918 17.25 16.125 17.25H17.625C17.832 17.25 18 17.082 18 16.875V15.375V12.375C18 12.2895 17.9887 12.2077 17.9707 12.1282ZM2.25 2.62499C2.25 2.00473 2.75474 1.49999 3.375 1.49999H14.625C15.2453 1.49999 15.75 2.00473 15.75 2.62499V6.74998H14.7307L14.3813 5.35199C14.2553 4.85024 13.806 4.49998 13.2892 4.49998H10.875C10.2547 4.49998 9.74999 5.00471 9.74999 5.62498V6.74998H8.24998V5.62571C8.24998 5.00545 7.74524 4.50071 7.12498 4.50071H4.71073C4.19396 4.50071 3.74474 4.85171 3.61874 5.35273L3.26925 6.74998H2.25V2.62499ZM13.9605 7.35596C13.8885 7.44748 13.7805 7.49996 13.6642 7.49996H10.875C10.6687 7.49996 10.5 7.33195 10.5 7.12495V5.62498C10.5 5.41798 10.6687 5.24996 10.875 5.24996H13.29C13.4625 5.24996 13.6117 5.36623 13.6537 5.53346L14.0288 7.03348C14.0573 7.14671 14.0325 7.26371 13.9605 7.35596ZM7.50076 5.62498V7.12123C7.50076 7.12274 7.50002 7.12348 7.50002 7.12499C7.50002 7.12573 7.50002 7.1265 7.50002 7.1265C7.49929 7.33276 7.33127 7.5 7.12578 7.5H4.33652C4.21952 7.5 4.11226 7.44751 4.04026 7.356C3.96826 7.26375 3.94351 7.14601 3.97202 7.03351L4.34704 5.5335C4.38905 5.367 4.53829 5.25 4.71154 5.25H7.12578C7.33201 5.24996 7.50076 5.41798 7.50076 5.62498ZM2.15174 7.49996H3.2805C3.32026 7.61246 3.37201 7.72047 3.44774 7.81795C3.66374 8.09245 3.987 8.24995 4.33575 8.24995H7.12501C7.61326 8.24995 8.02575 7.93495 8.181 7.49996H9.819C9.97425 7.93573 10.3867 8.24995 10.875 8.24995H13.6642C14.013 8.24995 14.3355 8.09245 14.5515 7.81795C14.6272 7.7212 14.679 7.61246 14.7187 7.49996H15.8482L17.0062 11.2635C16.9628 11.2582 16.92 11.25 16.875 11.25H1.125C1.08 11.25 1.03725 11.2582 0.9945 11.2635L2.15174 7.49996ZM1.50001 16.5H0.749988V15.75H1.49998L1.50001 16.5ZM17.25 16.5H16.5V15.75H17.25V16.5ZM17.25 15H0.749988V12.375C0.749988 12.168 0.918738 12 1.125 12H16.875C17.0813 12 17.25 12.168 17.25 12.375V15Z" fill="#575757"/>
</g>
<defs>
<clipPath id="clip0_319_2004">
<rect width="18" height="18" fill="white"/>
</clipPath>
</defs>
</svg>
