<svg width="18" height="18" viewBox="0 0 18 18" fill="none" xmlns="http://www.w3.org/2000/svg">
<g clip-path="url(#clip0_319_2010)">
<path d="M13.7875 17.1997H4.18755C1.98252 17.1997 0.1875 15.4046 0.1875 13.1996V9.59961H17.7875V13.1996C17.7875 15.4046 15.9924 17.1997 13.7875 17.1997ZM0.987451 10.3996V13.1996C0.987451 14.9646 2.42256 16.3996 4.18755 16.3996H13.7875C15.5525 16.3996 16.9875 14.9646 16.9875 13.1996V10.3996H0.987451Z" fill="#575757"/>
<path d="M4.98828 16.8008H5.78823V18.0008H4.98828V16.8008Z" fill="#575757"/>
<path d="M12.1875 16.8008H12.9875V18.0008H12.1875V16.8008Z" fill="#575757"/>
<path d="M3.38784 10H2.58789V2.80005C2.58789 1.25493 3.84282 0 5.38794 0C6.93291 0 8.18784 1.25493 8.18784 2.80005V3.19995H7.38789V2.80005C7.38789 1.69497 6.49287 0.799951 5.38794 0.799951C4.28286 0.799951 3.38784 1.69497 3.38784 2.80005V10Z" fill="#575757"/>
<path d="M10.5882 6.40078H4.98828V5.60068C4.98828 4.05571 6.24321 2.80078 7.78833 2.80078C9.3333 2.80078 10.5882 4.05571 10.5882 5.60068V6.40078ZM5.78823 5.60068H9.78828C9.78828 4.49575 8.89326 3.60073 7.78833 3.60073C6.68325 3.60073 5.78823 4.49575 5.78823 5.60068Z" fill="#575757"/>
</g>
<defs>
<clipPath id="clip0_319_2010">
<rect width="18" height="18" fill="white"/>
</clipPath>
</defs>
</svg>
