<svg width="18" height="18" viewBox="0 0 18 18" fill="none" xmlns="http://www.w3.org/2000/svg">
<g clip-path="url(#clip0_319_2018)">
<path d="M13.5 0H4.5C3.30653 0 2.16193 0.474106 1.31802 1.31802C0.474106 2.16193 0 3.30653 0 4.5L0 13.5C0 14.6935 0.474106 15.8381 1.31802 16.682C2.16193 17.5259 3.30653 18 4.5 18H13.5C14.6935 18 15.8381 17.5259 16.682 16.682C17.5259 15.8381 18 14.6935 18 13.5V4.5C18 3.30653 17.5259 2.16193 16.682 1.31802C15.8381 0.474106 14.6935 0 13.5 0ZM17.1562 13.5C17.1551 14.4694 16.7696 15.3987 16.0841 16.0841C15.3987 16.7696 14.4694 17.1551 13.5 17.1562H4.5C3.53064 17.1551 2.60131 16.7696 1.91587 16.0841C1.23044 15.3987 0.844867 14.4694 0.84375 13.5V4.5C0.844867 3.53064 1.23044 2.60131 1.91587 1.91587C2.60131 1.23044 3.53064 0.844867 4.5 0.84375H13.5C14.4694 0.844867 15.3987 1.23044 16.0841 1.91587C16.7696 2.60131 17.1551 3.53064 17.1562 4.5V13.5Z" fill="#575757"/>
<path d="M12.7969 12.2001L5.79994 5.20312H8.56772V4.35938H4.35938V8.56772H5.20312V5.79966L12.2003 12.7969H9.43228V13.6406H13.6406V9.43228H12.7969V12.2001Z" fill="#575757"/>
</g>
<defs>
<clipPath id="clip0_319_2018">
<rect width="18" height="18" fill="white"/>
</clipPath>
</defs>
</svg>
