<svg width="11" height="11" viewBox="0 0 11 11" fill="none" xmlns="http://www.w3.org/2000/svg">
<mask id="mask0_217_14595" style="mask-type:alpha" maskUnits="userSpaceOnUse" x="0" y="0" width="11" height="11">
<rect width="10.1436" height="10.1436" fill="#D9D9D9"/>
</mask>
<g mask="url(#mask0_217_14595)">
<path d="M0.845276 8.03036V5.49447C0.845276 5.30427 0.884019 5.13169 0.961504 4.97672C1.03899 4.82175 1.14113 4.68439 1.26792 4.56464V3.38123C1.26792 3.02902 1.3912 2.72964 1.63774 2.4831C1.88429 2.23655 2.18366 2.11328 2.53587 2.11328H4.22646C4.38848 2.11328 4.53992 2.14329 4.68081 2.20331C4.82169 2.26304 4.95201 2.34574 5.07176 2.4514C5.19151 2.34574 5.32182 2.26304 5.46271 2.20331C5.60359 2.14329 5.75504 2.11328 5.91705 2.11328H7.60765C7.95985 2.11328 8.25923 2.23655 8.50577 2.4831C8.75232 2.72964 8.87559 3.02902 8.87559 3.38123V4.56464C9.00238 4.68439 9.10452 4.82175 9.18201 4.97672C9.2595 5.13169 9.29824 5.30427 9.29824 5.49447V8.03036H8.45294V7.18506H1.69057V8.03036H0.845276ZM5.49441 4.22652H8.03029V3.38123C8.03029 3.26148 7.98972 3.16103 7.90857 3.07988C7.8277 2.99901 7.7274 2.95858 7.60765 2.95858H5.91705C5.7973 2.95858 5.69699 2.99901 5.61613 3.07988C5.53498 3.16103 5.49441 3.26148 5.49441 3.38123V4.22652ZM2.11322 4.22652H4.64911V3.38123C4.64911 3.26148 4.60868 3.16103 4.52781 3.07988C4.44666 2.99901 4.34621 2.95858 4.22646 2.95858H2.53587C2.41612 2.95858 2.31567 2.99901 2.23452 3.07988C2.15365 3.16103 2.11322 3.26148 2.11322 3.38123V4.22652ZM1.69057 6.33976H8.45294V5.49447C8.45294 5.37472 8.41237 5.27427 8.33122 5.19312C8.25035 5.11225 8.15004 5.07182 8.03029 5.07182H2.11322C1.99347 5.07182 1.89302 5.11225 1.81187 5.19312C1.73101 5.27427 1.69057 5.37472 1.69057 5.49447V6.33976Z" fill="#959596"/>
</g>
</svg>
