<svg width="19" height="19" viewBox="0 0 19 19" fill="none" xmlns="http://www.w3.org/2000/svg">
<mask id="mask0_217_14374" style="mask-type:alpha" maskUnits="userSpaceOnUse" x="0" y="0" width="19" height="19">
<rect width="19" height="19" fill="#D9D9D9"/>
</mask>
<g mask="url(#mask0_217_14374)">
<path d="M1.58325 15.0418V10.2918C1.58325 9.93558 1.65582 9.61232 1.80096 9.32204C1.9461 9.03176 2.13742 8.77447 2.37492 8.55016V6.3335C2.37492 5.67377 2.60582 5.11301 3.06763 4.6512C3.52943 4.1894 4.0902 3.9585 4.74992 3.9585H7.91658C8.22006 3.9585 8.50374 4.0147 8.76763 4.12712C9.03152 4.23901 9.27561 4.39391 9.49992 4.59183C9.72422 4.39391 9.96832 4.23901 10.2322 4.12712C10.4961 4.0147 10.7798 3.9585 11.0833 3.9585H14.2499C14.9096 3.9585 15.4704 4.1894 15.9322 4.6512C16.394 5.11301 16.6249 5.67377 16.6249 6.3335V8.55016C16.8624 8.77447 17.0537 9.03176 17.1989 9.32204C17.344 9.61232 17.4166 9.93558 17.4166 10.2918V15.0418H15.8333V13.4585H3.16659V15.0418H1.58325ZM10.2916 7.91683H15.0416V6.3335C15.0416 6.10919 14.9656 5.92104 14.8136 5.76904C14.6621 5.61757 14.4742 5.54183 14.2499 5.54183H11.0833C10.8589 5.54183 10.6711 5.61757 10.5196 5.76904C10.3676 5.92104 10.2916 6.10919 10.2916 6.3335V7.91683ZM3.95825 7.91683H8.70825V6.3335C8.70825 6.10919 8.63252 5.92104 8.48104 5.76904C8.32904 5.61757 8.14089 5.54183 7.91658 5.54183H4.74992C4.52561 5.54183 4.33746 5.61757 4.18546 5.76904C4.03399 5.92104 3.95825 6.10919 3.95825 6.3335V7.91683ZM3.16659 11.8752H15.8333V10.2918C15.8333 10.0675 15.7573 9.87937 15.6053 9.72737C15.4538 9.5759 15.2659 9.50016 15.0416 9.50016H3.95825C3.73395 9.50016 3.54579 9.5759 3.39379 9.72737C3.24232 9.87937 3.16659 10.0675 3.16659 10.2918V11.8752Z" fill="#959596"/>
</g>
</svg>
