<svg width="29" height="29" viewBox="0 0 29 29" fill="none" xmlns="http://www.w3.org/2000/svg">
<mask id="mask0_679_8069" style="mask-type:alpha" maskUnits="userSpaceOnUse" x="0" y="0" width="29" height="29">
<rect width="29" height="29" fill="#D9D9D9"/>
</mask>
<g mask="url(#mask0_679_8069)">
<path d="M12.8084 20.0584L21.3272 11.5397L19.6355 9.848L12.8084 16.6751L9.36466 13.2313L7.673 14.923L12.8084 20.0584ZM14.5001 26.5834C12.8286 26.5834 11.2577 26.2662 9.78758 25.6318C8.31744 24.9975 7.03862 24.1365 5.95112 23.049C4.86362 21.9615 4.00269 20.6827 3.36831 19.2126C2.73394 17.7424 2.41675 16.1716 2.41675 14.5001C2.41675 12.8286 2.73394 11.2577 3.36831 9.78758C4.00269 8.31744 4.86362 7.03862 5.95112 5.95112C7.03862 4.86362 8.31744 4.00269 9.78758 3.36831C11.2577 2.73394 12.8286 2.41675 14.5001 2.41675C16.1716 2.41675 17.7424 2.73394 19.2126 3.36831C20.6827 4.00269 21.9615 4.86362 23.049 5.95112C24.1365 7.03862 24.9975 8.31744 25.6318 9.78758C26.2662 11.2577 26.5834 12.8286 26.5834 14.5001C26.5834 16.1716 26.2662 17.7424 25.6318 19.2126C24.9975 20.6827 24.1365 21.9615 23.049 23.049C21.9615 24.1365 20.6827 24.9975 19.2126 25.6318C17.7424 26.2662 16.1716 26.5834 14.5001 26.5834ZM14.5001 24.1667C17.1987 24.1667 19.4845 23.2303 21.3574 21.3574C23.2303 19.4845 24.1667 17.1987 24.1667 14.5001C24.1667 11.8015 23.2303 9.51571 21.3574 7.64279C19.4845 5.76987 17.1987 4.83341 14.5001 4.83341C11.8015 4.83341 9.51571 5.76987 7.64279 7.64279C5.76987 9.51571 4.83341 11.8015 4.83341 14.5001C4.83341 17.1987 5.76987 19.4845 7.64279 21.3574C9.51571 23.2303 11.8015 24.1667 14.5001 24.1667Z" fill="#5271FF"/>
</g>
</svg>
