<svg width="17" height="17" viewBox="0 0 17 17" fill="none" xmlns="http://www.w3.org/2000/svg">
<mask id="mask0_217_16236" style="mask-type:alpha" maskUnits="userSpaceOnUse" x="0" y="0" width="17" height="17">
<rect width="17" height="17" fill="#D9D9D9"/>
</mask>
<g mask="url(#mask0_217_16236)">
<path d="M8.49992 8.49999C8.8895 8.49999 9.22313 8.36116 9.50079 8.08349C9.77799 7.80629 9.91658 7.47291 9.91658 7.08332C9.91658 6.69374 9.77799 6.36011 9.50079 6.08245C9.22313 5.80525 8.8895 5.66666 8.49992 5.66666C8.11034 5.66666 7.77695 5.80525 7.49975 6.08245C7.22209 6.36011 7.08325 6.69374 7.08325 7.08332C7.08325 7.47291 7.22209 7.80629 7.49975 8.08349C7.77695 8.36116 8.11034 8.49999 8.49992 8.49999ZM8.49992 13.7062C9.9402 12.384 11.0086 11.1827 11.7051 10.1022C12.4017 9.02227 12.7499 8.06318 12.7499 7.22499C12.7499 5.93818 12.3396 4.88442 11.5188 4.0637C10.6986 3.24345 9.69228 2.83332 8.49992 2.83332C7.30756 2.83332 6.30102 3.24345 5.48029 4.0637C4.66004 4.88442 4.24992 5.93818 4.24992 7.22499C4.24992 8.06318 4.59818 9.02227 5.29471 10.1022C5.99124 11.1827 7.05964 12.384 8.49992 13.7062ZM8.49992 15.5833C6.59922 13.966 5.17972 12.4636 4.24142 11.0762C3.30264 9.68928 2.83325 8.40555 2.83325 7.22499C2.83325 5.45416 3.40299 4.04339 4.54246 2.9927C5.68146 1.942 7.00061 1.41666 8.49992 1.41666C9.99922 1.41666 11.3184 1.942 12.4574 2.9927C13.5968 4.04339 14.1666 5.45416 14.1666 7.22499C14.1666 8.40555 13.6974 9.68928 12.7591 11.0762C11.8203 12.4636 10.4006 13.966 8.49992 15.5833Z" fill="#2F4ACF"/>
</g>
</svg>
