<svg width="16" height="16" viewBox="0 0 16 16" fill="none" xmlns="http://www.w3.org/2000/svg">
<mask id="mask0_306_7739" style="mask-type:alpha" maskUnits="userSpaceOnUse" x="0" y="0" width="16" height="16">
<rect width="15.5" height="15.5" fill="#D9D9D9"/>
</mask>
<g mask="url(#mask0_306_7739)">
<path d="M7.10425 10.9792H8.39592V7.10425H7.10425V10.9792ZM7.75008 5.81258C7.93307 5.81258 8.08656 5.75058 8.21056 5.62658C8.33413 5.50301 8.39592 5.34973 8.39592 5.16675C8.39592 4.98376 8.33413 4.83027 8.21056 4.70627C8.08656 4.5827 7.93307 4.52092 7.75008 4.52092C7.5671 4.52092 7.41382 4.5827 7.29025 4.70627C7.16625 4.83027 7.10425 4.98376 7.10425 5.16675C7.10425 5.34973 7.16625 5.50301 7.29025 5.62658C7.41382 5.75058 7.5671 5.81258 7.75008 5.81258ZM7.75008 14.2084C6.85668 14.2084 6.0171 14.0388 5.23133 13.6995C4.44557 13.3607 3.76206 12.9006 3.18081 12.3194C2.59956 11.7381 2.13951 11.0546 1.80066 10.2688C1.46139 9.48307 1.29175 8.64348 1.29175 7.75008C1.29175 6.85668 1.46139 6.0171 1.80066 5.23133C2.13951 4.44557 2.59956 3.76206 3.18081 3.18081C3.76206 2.59956 4.44557 2.1393 5.23133 1.80002C6.0171 1.46117 6.85668 1.29175 7.75008 1.29175C8.64348 1.29175 9.48307 1.46117 10.2688 1.80002C11.0546 2.1393 11.7381 2.59956 12.3194 3.18081C12.9006 3.76206 13.3607 4.44557 13.6995 5.23133C14.0388 6.0171 14.2084 6.85668 14.2084 7.75008C14.2084 8.64348 14.0388 9.48307 13.6995 10.2688C13.3607 11.0546 12.9006 11.7381 12.3194 12.3194C11.7381 12.9006 11.0546 13.3607 10.2688 13.6995C9.48307 14.0388 8.64348 14.2084 7.75008 14.2084ZM7.75008 12.9167C9.19244 12.9167 10.4141 12.4162 11.4152 11.4152C12.4162 10.4141 12.9167 9.19244 12.9167 7.75008C12.9167 6.30772 12.4162 5.08602 11.4152 4.08498C10.4141 3.08394 9.19244 2.58341 7.75008 2.58341C6.30772 2.58341 5.08602 3.08394 4.08498 4.08498C3.08394 5.08602 2.58341 6.30772 2.58341 7.75008C2.58341 9.19244 3.08394 10.4141 4.08498 11.4152C5.08602 12.4162 6.30772 12.9167 7.75008 12.9167Z" fill="#1C1B1F"/>
</g>
</svg>
