<svg width="19" height="19" viewBox="0 0 19 19" fill="none" xmlns="http://www.w3.org/2000/svg">
<mask id="mask0_217_14743" style="mask-type:alpha" maskUnits="userSpaceOnUse" x="0" y="0" width="19" height="19">
<rect width="18.4393" height="18.4393" fill="#D9D9D9"/>
</mask>
<g mask="url(#mask0_217_14743)">
<path d="M15.0588 16.1344L10.2185 11.2941C9.83431 11.6014 9.39254 11.8447 8.89314 12.024C8.39374 12.2032 7.86233 12.2929 7.29891 12.2929C5.90316 12.2929 4.72202 11.8096 3.75549 10.8431C2.78845 9.87606 2.30493 8.69466 2.30493 7.29891C2.30493 5.90316 2.78845 4.72176 3.75549 3.75472C4.72202 2.7882 5.90316 2.30493 7.29891 2.30493C8.69466 2.30493 9.87606 2.7882 10.8431 3.75472C11.8096 4.72176 12.2929 5.90316 12.2929 7.29891C12.2929 7.86233 12.2032 8.39374 12.024 8.89314C11.8447 9.39254 11.6014 9.83431 11.2941 10.2185L16.1344 15.0588L15.0588 16.1344ZM7.29891 10.7563C8.25929 10.7563 9.07574 10.4203 9.74826 9.74826C10.4203 9.07574 10.7563 8.25929 10.7563 7.29891C10.7563 6.33853 10.4203 5.52208 9.74826 4.84955C9.07574 4.17754 8.25929 3.84154 7.29891 3.84154C6.33853 3.84154 5.52208 4.17754 4.84955 4.84955C4.17754 5.52208 3.84154 6.33853 3.84154 7.29891C3.84154 8.25929 4.17754 9.07574 4.84955 9.74826C5.52208 10.4203 6.33853 10.7563 7.29891 10.7563Z" fill="white"/>
</g>
</svg>
