<svg width="14" height="14" viewBox="0 0 14 14" fill="none" xmlns="http://www.w3.org/2000/svg">
<mask id="mask0_217_14685" style="mask-type:alpha" maskUnits="userSpaceOnUse" x="0" y="0" width="14" height="14">
<rect width="14" height="14" fill="#D9D9D9"/>
</mask>
<g mask="url(#mask0_217_14685)">
<path d="M6.99999 12.2501L6.15416 11.4917C5.17221 10.607 4.36041 9.84381 3.71874 9.20215C3.07707 8.56048 2.56666 7.98434 2.18749 7.47373C1.80832 6.96351 1.54349 6.49451 1.39299 6.06673C1.2421 5.63895 1.16666 5.20145 1.16666 4.75423C1.16666 3.84034 1.47291 3.07715 2.08541 2.46465C2.69791 1.85215 3.4611 1.5459 4.37499 1.5459C4.88055 1.5459 5.3618 1.65284 5.81874 1.86673C6.27568 2.08062 6.66943 2.38201 6.99999 2.7709C7.33055 2.38201 7.7243 2.08062 8.18124 1.86673C8.63818 1.65284 9.11943 1.5459 9.62499 1.5459C10.5389 1.5459 11.3021 1.85215 11.9146 2.46465C12.5271 3.07715 12.8333 3.84034 12.8333 4.75423C12.8333 5.20145 12.7581 5.63895 12.6076 6.06673C12.4567 6.49451 12.1917 6.96351 11.8125 7.47373C11.4333 7.98434 10.9229 8.56048 10.2812 9.20215C9.63957 9.84381 8.82777 10.607 7.84582 11.4917L6.99999 12.2501ZM6.99999 10.6751C7.93332 9.83895 8.70138 9.12184 9.30416 8.52373C9.90693 7.92601 10.3833 7.40606 10.7333 6.9639C11.0833 6.52134 11.3264 6.1274 11.4625 5.78206C11.5986 5.43712 11.6667 5.09451 11.6667 4.75423C11.6667 4.1709 11.4722 3.68479 11.0833 3.2959C10.6944 2.90701 10.2083 2.71257 9.62499 2.71257C9.16805 2.71257 8.74513 2.84129 8.35624 3.09873C7.96735 3.35656 7.69999 3.68479 7.55416 4.0834H6.44582C6.29999 3.68479 6.03263 3.35656 5.64374 3.09873C5.25485 2.84129 4.83193 2.71257 4.37499 2.71257C3.79166 2.71257 3.30555 2.90701 2.91666 3.2959C2.52777 3.68479 2.33332 4.1709 2.33332 4.75423C2.33332 5.09451 2.40138 5.43712 2.53749 5.78206C2.6736 6.1274 2.91666 6.52134 3.26666 6.9639C3.61666 7.40606 4.09305 7.92601 4.69582 8.52373C5.2986 9.12184 6.06666 9.83895 6.99999 10.6751Z" fill="#E7493F"/>
<path d="M9.5 2L7 3.5L4 2L2 3L1.5 4.5L2.5 7L7 11.5L9 10L11.5 7L12 4L9.5 2Z" fill="#E7493F"/>
</g>
</svg>
