<svg width="11" height="11" viewBox="0 0 11 11" fill="none" xmlns="http://www.w3.org/2000/svg">
<g clip-path="url(#clip0_294_35)">
<path d="M2.86172 0.537109L1.70822 2.55664H9.29199L8.13828 0.537109H2.86172ZM0.537109 2.94336V3.93164H10.4629V2.94336H0.537109ZM1.22461 4.31836V5.30664H2.21289V4.31836H1.22461ZM8.78711 4.31836V5.30664H9.77539V4.31836H8.78711ZM5.10469 4.33125C5.10469 4.33125 4.63203 4.52031 4.58906 4.73516C4.49023 5.225 5.31738 6.04141 5.31738 6.04141C5.31738 6.04141 5.03164 5.29805 5.01016 4.90703C4.99941 4.71152 5.10469 4.33125 5.10469 4.33125ZM6.27344 4.64922C6.14238 5.51289 6.03281 6.44746 5.2873 6.80195C4.63633 7.11133 4.50527 5.11543 3.26562 4.83613C4.23027 7.0082 1.78535 7.8418 4.17227 8.81504H4.59121C4.07559 8.25859 3.85215 6.86426 3.85215 6.86426C3.85215 6.86426 4.50098 8.41113 5.19492 8.4584C5.51719 8.47988 5.91465 7.80957 5.91465 7.80957C5.91465 7.80957 6.04141 8.4498 5.9125 8.81504H6.85352C7.44004 8.49707 7.81172 8.04805 7.95352 7.58398C8.09316 7.13496 8.01797 6.6709 7.71934 6.29707C7.53457 7.40996 7.25957 7.64629 6.53555 7.88906C7.32188 6.92871 6.96953 5.32812 6.27344 4.64922ZM1.22461 5.69336V6.68164H2.21289V5.69336H1.22461ZM8.78711 5.69336V6.68164H9.77539V5.69336H8.78711ZM1.22461 7.06836V8.74414H2.21289V7.06836H1.22461ZM8.78711 7.06836V8.74414H9.77539V7.06836H8.78711ZM0.537109 9.13086V10.4629H10.4629V9.13086H0.537109Z" fill="#575757"/>
</g>
<defs>
<clipPath id="clip0_294_35">
<rect width="11" height="11" fill="white"/>
</clipPath>
</defs>
</svg>
