<svg width="10" height="10" viewBox="0 0 10 10" fill="none" xmlns="http://www.w3.org/2000/svg">
<path d="M8.12533 8.74992C7.95171 8.74992 7.80421 8.68909 7.68283 8.56742C7.56116 8.44603 7.50033 8.29853 7.50033 8.12492C7.50033 7.95131 7.56116 7.80381 7.68283 7.68242C7.80421 7.56075 7.95171 7.49992 8.12533 7.49992C8.29894 7.49992 8.44644 7.56075 8.56783 7.68242C8.68949 7.80381 8.75033 7.95131 8.75033 8.12492C8.75033 8.29853 8.68949 8.44603 8.56783 8.56742C8.44644 8.68909 8.29894 8.74992 8.12533 8.74992ZM4.16699 9.16658C3.47255 9.16658 2.88227 9.08506 2.39616 8.922C1.91005 8.75867 1.66699 8.56242 1.66699 8.33325C1.66699 8.17353 1.78158 8.03117 2.01074 7.90617C2.23991 7.78117 2.54199 7.68047 2.91699 7.60408V8.33325H3.75033V0.833252L7.08366 2.45825L4.58366 3.74992V7.52075C5.18088 7.55547 5.67741 7.64742 6.07324 7.79659C6.46908 7.94603 6.66699 8.12492 6.66699 8.33325C6.66699 8.56242 6.42394 8.75867 5.93783 8.922C5.45171 9.08506 4.86144 9.16658 4.16699 9.16658Z" fill="#575757"/>
</svg>
