<svg width="24" height="15" viewBox="0 0 24 15" fill="none" xmlns="http://www.w3.org/2000/svg">
<path d="M0.570312 13.2146C0.570312 13.7406 0.996708 14.167 1.52269 14.167H22.4751C23.0011 14.167 23.4275 13.7406 23.4275 13.2146C23.4275 12.6886 23.0011 12.2622 22.4751 12.2622H1.52269C0.996707 12.2622 0.570312 12.6886 0.570312 13.2146ZM0.570312 7.50019C0.570312 8.02609 0.996642 8.45242 1.52255 8.45242H22.4752C23.0011 8.45242 23.4275 8.02609 23.4275 7.50019C23.4275 6.97428 23.0011 6.54795 22.4752 6.54795H1.52255C0.996641 6.54795 0.570312 6.97428 0.570312 7.50019ZM1.52269 0.833374C0.996707 0.833374 0.570312 1.25977 0.570312 1.78575C0.570312 2.31174 0.996708 2.73814 1.52269 2.73814H22.4751C23.0011 2.73814 23.4275 2.31174 23.4275 1.78575C23.4275 1.25977 23.0011 0.833374 22.4751 0.833374H1.52269Z" fill="#08072B"/>
</svg>
