<svg width="69" height="69" viewBox="0 0 69 69" fill="none" xmlns="http://www.w3.org/2000/svg">
<path d="M30.3222 15.6029C30.0844 12.7595 27.9299 10.515 25.2022 10.3254C23.5608 10.2129 21.3078 10.1593 18.2212 10.29C15.1346 10.4207 12.874 10.6661 11.2166 10.9168C8.47287 11.34 6.1298 13.6841 5.70662 16.4268C5.45592 18.0842 5.217 20.3458 5.07987 23.4314C4.94274 26.5169 5.00059 28.7699 5.11522 30.4123C5.30593 33.14 7.54936 35.2945 10.3927 35.5324C12.1069 35.6717 14.4468 35.7702 17.6555 35.7606C20.8642 35.7509 23.2105 35.6395 24.9204 35.4852C26.2998 35.3625 27.5922 34.7587 28.5714 33.7795C29.5507 32.8002 30.1545 31.5079 30.2772 30.1284C30.4315 28.4196 30.544 26.0733 30.5525 22.8635C30.5611 19.6537 30.4615 17.3117 30.3222 15.6029Z" fill="#EFE1FF"/>
<path d="M59.1535 16.4262C58.7303 13.6835 56.3862 11.3393 53.6435 10.9161C51.9861 10.6655 49.7245 10.4265 46.639 10.2894C43.5534 10.1523 41.3004 10.2101 39.658 10.3248C36.9303 10.5144 34.7758 12.7589 34.5379 15.6023C34.3987 17.3165 34.3001 19.6563 34.3097 22.865C34.3194 26.0738 34.4308 28.42 34.5851 30.1299C34.7076 31.5094 35.3113 32.8019 36.2906 33.7812C37.2699 34.7605 38.5624 35.3642 39.9419 35.4867C41.6561 35.641 43.997 35.7535 47.2068 35.7621C50.4166 35.7707 52.7607 35.6732 54.4695 35.5339C57.3118 35.296 59.5564 33.1405 59.7471 30.4138C59.8617 28.7715 59.9131 26.5195 59.7824 23.4329C59.6517 20.3463 59.4042 18.0836 59.1535 16.4262Z" fill="#EFE1FF"/>
<path d="M30.2758 45.1502C30.1533 43.7708 29.5496 42.4783 28.5703 41.499C27.591 40.5197 26.2985 39.916 24.919 39.7934C23.2048 39.6392 20.8639 39.5267 17.6541 39.5181C14.4443 39.5095 12.1002 39.607 10.3914 39.7463C7.55119 39.9863 5.30562 42.1408 5.11599 44.8685C5.00349 46.5109 4.94993 48.7629 5.08063 51.8495C5.21134 54.9361 5.45668 57.1966 5.70738 58.854C6.13057 61.5967 8.4747 63.9408 11.2174 64.364C12.8716 64.6147 15.1332 64.8569 18.2187 64.9908C21.3043 65.1247 23.5573 65.0701 25.1997 64.9554C27.9253 64.7658 30.0819 62.5202 30.3198 59.6779C30.459 57.9691 30.5576 55.6239 30.548 52.4151C30.5383 49.2064 30.4301 46.8548 30.2758 45.1502Z" fill="#EFE1FF"/>
<path d="M59.7499 44.8665C59.5602 42.1409 57.3147 39.9843 54.4723 39.7464C52.7635 39.6072 50.4183 39.5086 47.2096 39.5182C44.0009 39.5279 41.6535 39.6393 39.9447 39.7936C38.5652 39.9161 37.2727 40.5198 36.2934 41.4991C35.3141 42.4784 34.7104 43.7709 34.5879 45.1504C34.4336 46.8645 34.3211 49.2055 34.3125 52.4153C34.304 55.6251 34.4015 57.9692 34.5407 59.678C34.7786 62.5203 36.9352 64.7659 39.6608 64.9555C41.3032 65.0702 43.5552 65.1216 46.6418 64.9909C49.7283 64.8602 51.9889 64.6149 53.6431 64.3642C56.3901 63.941 58.7331 61.5968 59.1563 58.8509C59.407 57.1968 59.6491 54.9351 59.7831 51.8496C59.917 48.7641 59.857 46.5089 59.7499 44.8665Z" fill="#EFE1FF"/>
<path d="M28.9981 28.5788L28.999 28.5787C30.2148 28.4705 31.3539 27.9383 32.2171 27.0752C33.0802 26.2121 33.6124 25.073 33.7206 23.8571L33.7207 23.8562C33.8726 22.1729 33.9846 19.8478 33.9932 16.6524C34.0017 13.4574 33.9025 11.1356 33.7652 9.45068C33.5531 6.92274 31.6483 4.97819 29.2945 4.81444C27.6821 4.70395 25.4552 4.65039 22.3914 4.78013C19.3283 4.90984 17.0932 5.15291 15.463 5.39947C13.0218 5.77647 10.9162 7.88298 10.5392 10.3232C10.2928 11.9525 10.056 14.1889 9.9198 17.2531C9.78375 20.3144 9.84153 22.5407 9.95414 24.1542L28.9981 28.5788ZM28.9981 28.5788C27.3139 28.7307 24.9887 28.8417 21.794 28.8513C18.6004 28.8609 16.2809 28.7627 14.5908 28.6254M28.9981 28.5788L14.5908 28.6254M14.5908 28.6254C12.0628 28.4136 10.1188 26.5088 9.95415 24.1543L14.5908 28.6254Z" stroke="#9F54FF" stroke-width="1.4"/>
<path d="M43.8473 4.81377L43.8471 4.81378C41.493 4.97744 39.588 6.92228 39.3762 9.45053C39.2389 11.1407 39.1408 13.4601 39.1504 16.6536C39.16 19.8484 39.2709 22.1735 39.4229 23.8577L39.423 23.8587C39.5309 25.0746 40.0631 26.2138 40.9262 27.0769C41.7894 27.9401 42.9285 28.4722 44.1444 28.5802L44.1452 28.5803C45.8341 28.7323 48.154 28.8443 51.3493 28.8528C54.5443 28.8613 56.8679 28.7642 58.5524 28.627C61.0794 28.4152 63.0247 26.5093 63.1894 24.1558L43.8473 4.81377ZM43.8473 4.81377C45.4608 4.70115 47.6872 4.64336 50.7485 4.77942C53.8127 4.91561 56.0492 5.15244 57.6785 5.39884C60.1187 5.77587 62.2253 7.8826 62.6022 10.3229L43.8473 4.81377Z" stroke="#9F54FF" stroke-width="1.4"/>
<path d="M33.7192 39.0029L33.7193 39.0041C33.8712 40.6822 33.979 43.0124 33.9886 46.208C33.9982 49.4015 33.9 51.7262 33.7628 53.4108C33.5511 55.938 31.6439 57.8842 29.2918 58.0478L29.2916 58.0478C27.6786 58.1604 25.4521 58.2151 22.3897 58.0821C19.3264 57.9492 17.0901 57.7092 15.4637 57.4628C13.0235 57.0857 10.917 54.9791 10.54 52.539C10.2934 50.9087 10.0503 48.6736 9.92063 45.6106C9.79089 42.5467 9.84445 40.3209 9.95495 38.7074C10.1188 36.3535 12.0646 34.4485 14.5899 34.2346C16.2744 34.0974 18.5979 34.0003 21.7929 34.0088C24.9882 34.0173 27.3081 34.1293 28.9969 34.2813L28.9977 34.2814C30.2136 34.3894 31.3528 34.9215 32.2159 35.7847C33.0791 36.6478 33.6112 37.787 33.7192 39.0029Z" stroke="#9F54FF" stroke-width="1.4"/>
<path d="M44.1472 34.2815L44.1482 34.2814C45.8314 34.1295 48.1576 34.0185 51.3523 34.0089C54.546 33.9993 56.8707 34.0975 58.5554 34.2348C61.0821 34.4466 63.0279 36.353 63.1921 38.7046C63.2975 40.3208 63.3572 42.5502 63.2244 45.61C63.0914 48.6729 62.8515 50.909 62.6051 52.5353C62.2283 54.979 60.1227 57.0857 57.6783 57.4629C56.0513 57.7094 53.8162 57.9525 50.7528 58.0822C47.6881 58.212 45.4626 58.1605 43.8501 58.048L43.85 58.0479C41.4979 57.8843 39.5908 55.9383 39.379 53.4111C39.2417 51.7267 39.1446 49.403 39.1532 46.2079C39.1617 43.0125 39.2737 40.6927 39.4257 39.0038L39.4258 39.003C39.5338 37.7871 40.0659 36.6479 40.929 35.7848C41.7922 34.9217 42.9314 34.3895 44.1472 34.2815Z" stroke="#9F54FF" stroke-width="1.4"/>
</svg>
