<svg width="16" height="17" viewBox="0 0 16 17" fill="none" xmlns="http://www.w3.org/2000/svg">
<g clip-path="url(#clip0_117_7693)">
<path fill-rule="evenodd" clip-rule="evenodd" d="M8.25 0.5C4.80038 0.5 2 3.30038 2 6.75C2 8.25417 2.94129 10.0595 4.10834 11.6686C5.77841 13.9716 7.86667 15.8814 7.86667 15.8814C8.08371 16.0799 8.41629 16.0799 8.63333 15.8814C8.63333 15.8814 10.7216 13.9716 12.3917 11.6686C13.5587 10.0595 14.5 8.25417 14.5 6.75C14.5 3.30038 11.6996 0.5 8.25 0.5ZM8.25 1.63636C11.0723 1.63636 13.3636 3.92765 13.3636 6.75C13.3636 8.05795 12.4867 9.60227 11.472 11.0015C10.2977 12.6201 8.90871 14.0364 8.25 14.678C7.59129 14.0364 6.20227 12.6201 5.02803 11.0015C4.01325 9.60227 3.13636 8.05795 3.13636 6.75C3.13636 3.92765 5.42765 1.63636 8.25 1.63636ZM8.25 3.5303C6.47311 3.5303 5.0303 4.97311 5.0303 6.75C5.0303 8.52689 6.47311 9.9697 8.25 9.9697C10.0269 9.9697 11.4697 8.52689 11.4697 6.75C11.4697 4.97311 10.0269 3.5303 8.25 3.5303ZM8.25 4.66667C9.4 4.66667 10.3333 5.6 10.3333 6.75C10.3333 7.9 9.4 8.83333 8.25 8.83333C7.1 8.83333 6.16667 7.9 6.16667 6.75C6.16667 5.6 7.1 4.66667 8.25 4.66667Z" fill="#7C7CA5"/>
</g>
<defs>
<clipPath id="clip0_117_7693">
<rect width="16" height="16" fill="white" transform="translate(0 0.5)"/>
</clipPath>
</defs>
</svg>
