<svg width="16" height="16" viewBox="0 0 16 16" fill="none" xmlns="http://www.w3.org/2000/svg">
<mask id="mask0_217_14726" style="mask-type:alpha" maskUnits="userSpaceOnUse" x="0" y="0" width="16" height="16">
<rect width="16" height="16" fill="#D9D9D9"/>
</mask>
<g mask="url(#mask0_217_14726)">
<path d="M8.00001 7.99992C8.36667 7.99992 8.68067 7.86925 8.94201 7.60792C9.20289 7.34703 9.33334 7.03325 9.33334 6.66658C9.33334 6.29992 9.20289 5.98592 8.94201 5.72458C8.68067 5.4637 8.36667 5.33325 8.00001 5.33325C7.63334 5.33325 7.31956 5.4637 7.05867 5.72458C6.79734 5.98592 6.66667 6.29992 6.66667 6.66658C6.66667 7.03325 6.79734 7.34703 7.05867 7.60792C7.31956 7.86925 7.63334 7.99992 8.00001 7.99992ZM8.00001 12.8999C9.35556 11.6555 10.3611 10.5248 11.0167 9.50792C11.6722 8.49147 12 7.58881 12 6.79992C12 5.58881 11.6138 4.59703 10.8413 3.82459C10.0693 3.05259 9.12223 2.66659 8.00001 2.66659C6.87778 2.66659 5.93045 3.05259 5.15801 3.82459C4.38601 4.59703 4.00001 5.58881 4.00001 6.79992C4.00001 7.58881 4.32778 8.49147 4.98334 9.50792C5.63889 10.5248 6.64445 11.6555 8.00001 12.8999ZM8.00001 14.6666C6.21112 13.1444 4.87512 11.7304 3.99201 10.4246C3.10845 9.11925 2.66667 7.91103 2.66667 6.79992C2.66667 5.13325 3.20289 3.80547 4.27534 2.81659C5.34734 1.8277 6.58889 1.33325 8.00001 1.33325C9.41112 1.33325 10.6527 1.8277 11.7247 2.81659C12.7971 3.80547 13.3333 5.13325 13.3333 6.79992C13.3333 7.91103 12.8918 9.11925 12.0087 10.4246C11.1251 11.7304 9.78889 13.1444 8.00001 14.6666Z" fill="white"/>
</g>
</svg>
