<svg width="21" height="21" viewBox="0 0 21 21" fill="none" xmlns="http://www.w3.org/2000/svg">
<mask id="mask0_227_7782" style="mask-type:alpha" maskUnits="userSpaceOnUse" x="0" y="0" width="21" height="21">
<rect width="21" height="21" fill="#D9D9D9"/>
</mask>
<g mask="url(#mask0_227_7782)">
<path d="M0.875 18.375V7.875H2.625V9.625H4.375V2.625H6.125V4.375H7.875V2.625H9.625V4.375H11.375V2.625H13.125V4.375H14.875V2.625H16.625V9.625H18.375V7.875H20.125V18.375H12.25V15.75C12.25 15.2688 12.0788 14.8566 11.7364 14.5136C11.3934 14.1712 10.9812 14 10.5 14C10.0188 14 9.60692 14.1712 9.2645 14.5136C8.9215 14.8566 8.75 15.2688 8.75 15.75V18.375H0.875ZM2.625 16.625H7V15.75C7 14.7875 7.34271 13.9635 8.02813 13.2781C8.71354 12.5927 9.5375 12.25 10.5 12.25C11.4625 12.25 12.2865 12.5927 12.9719 13.2781C13.6573 13.9635 14 14.7875 14 15.75V16.625H18.375V11.375H14.875V6.125H6.125V11.375H2.625V16.625ZM7.875 10.5H9.625V7.875H7.875V10.5ZM11.375 10.5H13.125V7.875H11.375V10.5Z" fill="#1C1B1F"/>
</g>
</svg>
