<svg width="20" height="20" viewBox="0 0 20 20" fill="none" xmlns="http://www.w3.org/2000/svg">
<mask id="mask0_636_7785" style="mask-type:alpha" maskUnits="userSpaceOnUse" x="0" y="0" width="20" height="20">
<rect width="20" height="20" fill="#D9D9D9"/>
</mask>
<g mask="url(#mask0_636_7785)">
<path d="M9.58333 18.3334C8.30556 18.3334 7.22222 17.889 6.33333 17.0001C5.44444 16.1112 5 15.0279 5 13.7501V5.00008C5 4.08341 5.32639 3.29869 5.97917 2.64591C6.63194 1.99314 7.41667 1.66675 8.33333 1.66675C9.25 1.66675 10.0347 1.99314 10.6875 2.64591C11.3403 3.29869 11.6667 4.08341 11.6667 5.00008V12.9167C11.6667 13.5001 11.4653 13.9931 11.0625 14.3959C10.6597 14.7987 10.1667 15.0001 9.58333 15.0001C9 15.0001 8.50694 14.7987 8.10417 14.3959C7.70139 13.9931 7.5 13.5001 7.5 12.9167V5.00008H8.75V12.9167C8.75 13.1529 8.82986 13.3508 8.98958 13.5105C9.14931 13.6702 9.34722 13.7501 9.58333 13.7501C9.81944 13.7501 10.0174 13.6702 10.1771 13.5105C10.3368 13.3508 10.4167 13.1529 10.4167 12.9167V5.00008C10.4167 4.41675 10.2153 3.92369 9.8125 3.52091C9.40972 3.11814 8.91667 2.91675 8.33333 2.91675C7.75 2.91675 7.25694 3.11814 6.85417 3.52091C6.45139 3.92369 6.25 4.41675 6.25 5.00008V13.7501C6.25 14.6667 6.57639 15.4515 7.22917 16.1042C7.88194 16.757 8.66667 17.0834 9.58333 17.0834C10.5 17.0834 11.2847 16.757 11.9375 16.1042C12.5903 15.4515 12.9167 14.6667 12.9167 13.7501V5.00008H14.1667V13.7501C14.1667 15.0279 13.7222 16.1112 12.8333 17.0001C11.9444 17.889 10.8611 18.3334 9.58333 18.3334Z" fill="white"/>
</g>
</svg>
