<svg width="41" height="41" viewBox="0 0 41 41" fill="none" xmlns="http://www.w3.org/2000/svg">
<circle cx="20.5" cy="20.5" r="20" stroke="#E8E8FA"/>
<mask id="mask0_560_7782" style="mask-type:alpha" maskUnits="userSpaceOnUse" x="8" y="9" width="23" height="23">
<rect x="8.83105" y="9.01099" width="22.0588" height="22.0588" fill="#D9D9D9"/>
</mask>
<g mask="url(#mask0_560_7782)">
<path d="M15.265 30.1508C14.7595 30.1508 14.3269 29.9709 13.9672 29.6112C13.6069 29.2509 13.4268 28.818 13.4268 28.3125V11.7684C13.4268 11.2629 13.6069 10.83 13.9672 10.4697C14.3269 10.11 14.7595 9.93018 15.265 9.93018H24.4562C24.9617 9.93018 25.3946 10.11 25.7549 10.4697C26.1146 10.83 26.2944 11.2629 26.2944 11.7684V28.3125C26.2944 28.818 26.1146 29.2509 25.7549 29.6112C25.3946 29.9709 24.9617 30.1508 24.4562 30.1508H15.265ZM15.265 25.5552V28.3125H24.4562V25.5552H15.265ZM19.8606 27.853C20.121 27.853 20.3394 27.7647 20.5159 27.5883C20.6918 27.4124 20.7797 27.1943 20.7797 26.9339C20.7797 26.6734 20.6918 26.4553 20.5159 26.2794C20.3394 26.103 20.121 26.0147 19.8606 26.0147C19.6002 26.0147 19.382 26.103 19.2062 26.2794C19.0297 26.4553 18.9415 26.6734 18.9415 26.9339C18.9415 27.1943 19.0297 27.4124 19.2062 27.5883C19.382 27.7647 19.6002 27.853 19.8606 27.853ZM15.265 23.7169H24.4562V14.5258H15.265V23.7169ZM15.265 12.6875H24.4562V11.7684H15.265V12.6875Z" fill="#1C1B1F"/>
</g>
</svg>
