<svg width="22" height="22" viewBox="0 0 22 22" fill="none" xmlns="http://www.w3.org/2000/svg">
<rect width="22" height="22" rx="11" transform="matrix(-1 0 0 1 22 0)" fill="#5271FF"/>
<mask id="mask0_465_7728" style="mask-type:alpha" maskUnits="userSpaceOnUse" x="5" y="5" width="12" height="12">
<rect x="5" y="5" width="12" height="12" fill="#D9D9D9"/>
</mask>
<g mask="url(#mask0_465_7728)">
<path d="M8.5 16.4999C8.225 16.4999 7.98967 16.4021 7.794 16.2064C7.598 16.0104 7.5 15.7749 7.5 15.4999V6.49994C7.5 6.22494 7.598 5.98944 7.794 5.79344C7.98967 5.59777 8.225 5.49994 8.5 5.49994H13.5C13.775 5.49994 14.0105 5.59777 14.2065 5.79344C14.4022 5.98944 14.5 6.22494 14.5 6.49994V15.4999C14.5 15.7749 14.4022 16.0104 14.2065 16.2064C14.0105 16.4021 13.775 16.4999 13.5 16.4999H8.5ZM8.5 14.9999V15.4999H13.5V14.9999H8.5ZM8.5 13.9999H13.5V7.99994H8.5V13.9999ZM8.5 6.99994H13.5V6.49994H8.5V6.99994Z" fill="white"/>
</g>
</svg>
