<svg width="11" height="11" viewBox="0 0 11 11" fill="none" xmlns="http://www.w3.org/2000/svg">
<path d="M0.916992 9.625V8.70833C1.20727 8.70833 1.42498 8.63194 1.57012 8.47917C1.71526 8.32639 2.00171 8.25 2.42949 8.25C2.85727 8.25 3.15137 8.32639 3.31178 8.47917C3.4722 8.63194 3.68991 8.70833 3.96491 8.70833C4.23991 8.70833 4.45762 8.63194 4.61803 8.47917C4.77845 8.32639 5.07255 8.25 5.50033 8.25C5.9281 8.25 6.2222 8.32639 6.38262 8.47917C6.54303 8.63194 6.76074 8.70833 7.03574 8.70833C7.31074 8.70833 7.52845 8.63194 7.68887 8.47917C7.84928 8.32639 8.14338 8.25 8.57116 8.25C8.99894 8.25 9.2854 8.32639 9.43053 8.47917C9.57567 8.63194 9.79338 8.70833 10.0837 8.70833V9.625C9.63296 9.625 9.33688 9.54861 9.19541 9.39583C9.05424 9.24306 8.84616 9.16667 8.57116 9.16667C8.29616 9.16667 8.07845 9.24306 7.91803 9.39583C7.75762 9.54861 7.46352 9.625 7.03574 9.625C6.60796 9.625 6.31387 9.54861 6.15345 9.39583C5.99303 9.24306 5.77533 9.16667 5.50033 9.16667C5.22533 9.16667 5.00762 9.24306 4.8472 9.39583C4.68678 9.54861 4.39269 9.625 3.96491 9.625C3.53713 9.625 3.24303 9.54861 3.08262 9.39583C2.9222 9.24306 2.70449 9.16667 2.42949 9.16667C2.15449 9.16667 1.94641 9.24306 1.80524 9.39583C1.66377 9.54861 1.36769 9.625 0.916992 9.625ZM0.916992 7.5625V6.64583C1.20727 6.64583 1.42498 6.56944 1.57012 6.41667C1.71526 6.26389 2.00171 6.1875 2.42949 6.1875C2.85727 6.1875 3.15335 6.26389 3.31774 6.41667C3.48183 6.56944 3.69755 6.64583 3.96491 6.64583C4.23991 6.64583 4.45762 6.56944 4.61803 6.41667C4.77845 6.26389 5.07255 6.1875 5.50033 6.1875C5.9281 6.1875 6.2222 6.26389 6.38262 6.41667C6.54303 6.56944 6.76074 6.64583 7.03574 6.64583C7.31074 6.64583 7.52845 6.56944 7.68887 6.41667C7.84928 6.26389 8.14338 6.1875 8.57116 6.1875C8.99894 6.1875 9.2854 6.26389 9.43053 6.41667C9.57567 6.56944 9.79338 6.64583 10.0837 6.64583V7.5625C9.63296 7.5625 9.33688 7.48611 9.19541 7.33333C9.05424 7.18056 8.84616 7.10417 8.57116 7.10417C8.29616 7.10417 8.0841 7.18056 7.93499 7.33333C7.78619 7.48611 7.48644 7.5625 7.03574 7.5625C6.60033 7.5625 6.3044 7.48611 6.14795 7.33333C5.9912 7.18056 5.77533 7.10417 5.50033 7.10417C5.21005 7.10417 4.99433 7.18056 4.85316 7.33333C4.71169 7.48611 4.4156 7.5625 3.96491 7.5625C3.51421 7.5625 3.21446 7.48611 3.06566 7.33333C2.91655 7.18056 2.70449 7.10417 2.42949 7.10417C2.15449 7.10417 1.94641 7.18056 1.80524 7.33333C1.66377 7.48611 1.36769 7.5625 0.916992 7.5625ZM3.16283 5.225L4.68678 3.70104L4.22845 3.24271C3.97637 2.99062 3.70901 2.80729 3.42637 2.69271C3.14373 2.57812 2.79616 2.52083 2.38366 2.52083V1.375C2.95658 1.375 3.43019 1.43794 3.80449 1.56383C4.1788 1.69003 4.54546 1.93264 4.90449 2.29167L7.83783 5.225C7.70796 5.30903 7.58192 5.37579 7.4597 5.42529C7.33748 5.4751 7.19616 5.5 7.03574 5.5C6.76074 5.5 6.54303 5.42361 6.38262 5.27083C6.2222 5.11806 5.9281 5.04167 5.50033 5.04167C5.07255 5.04167 4.77845 5.11806 4.61803 5.27083C4.45762 5.42361 4.23991 5.5 3.96491 5.5C3.80449 5.5 3.66317 5.4751 3.54095 5.42529C3.41873 5.37579 3.29269 5.30903 3.16283 5.225ZM7.65449 1.375C7.97533 1.375 8.24651 1.4876 8.46803 1.71279C8.68956 1.93829 8.80033 2.20764 8.80033 2.52083C8.80033 2.84167 8.68956 3.11285 8.46803 3.33438C8.24651 3.5559 7.97533 3.66667 7.65449 3.66667C7.33366 3.66667 7.06248 3.5559 6.84095 3.33438C6.61942 3.11285 6.50866 2.84167 6.50866 2.52083C6.50866 2.20764 6.61942 1.93829 6.84095 1.71279C7.06248 1.4876 7.33366 1.375 7.65449 1.375Z" fill="#575757"/>
</svg>
