<svg width="252" height="100" viewBox="0 0 252 100" fill="none" xmlns="http://www.w3.org/2000/svg">
<g filter="url(#filter0_d_85_663)">
<rect width="229.979" height="78" rx="13" transform="matrix(1 0 0.000271438 1 12 11)" fill="white"/>
<path d="M64.7551 39.2527C63.1666 39.2527 61.901 38.7553 60.9583 37.7605C60.0208 36.7657 59.552 35.3464 59.552 33.5027C59.552 31.6537 60.0208 30.2319 60.9583 29.2371C61.901 28.2371 63.1666 27.7371 64.7551 27.7371C65.9947 27.7371 67.0077 28.0417 67.7942 28.6511C68.5806 29.2553 69.1405 30.0964 69.4739 31.1746H67.3958C66.8853 30.0548 66.0051 29.4949 64.7551 29.4949C63.776 29.4949 62.9973 29.8386 62.4192 30.5261C61.8411 31.2136 61.552 32.2032 61.552 33.4949C61.552 34.7865 61.8385 35.7761 62.4114 36.4636C62.9895 37.1511 63.7708 37.4949 64.7551 37.4949C66.0051 37.4949 66.8853 36.935 67.3958 35.8152H69.4739C69.1458 36.8933 68.5859 37.7371 67.7942 38.3464C67.0077 38.9506 65.9947 39.2527 64.7551 39.2527ZM71.0754 39.0964V30.6199H72.5989L72.8333 31.6589H72.9192C73.3775 30.9662 74.0702 30.6199 74.9973 30.6199H76.0364V32.3777H75.1536C74.4713 32.3777 73.927 32.5652 73.5208 32.9402C73.1197 33.31 72.9192 33.8152 72.9192 34.4558V39.0964H71.0754ZM80.6458 39.2527C79.3958 39.2527 78.4062 38.8673 77.677 38.0964C76.9478 37.3256 76.5833 36.2449 76.5833 34.8542C76.5833 33.4792 76.9452 32.4037 77.6692 31.6277C78.3931 30.8464 79.3645 30.4558 80.5833 30.4558C81.8228 30.4558 82.7994 30.8569 83.5129 31.6589C84.2265 32.4558 84.5833 33.4428 84.5833 34.6199L84.5051 35.4167H78.5051C78.5468 36.0678 78.7577 36.5912 79.1379 36.9871C79.5234 37.3777 80.0312 37.573 80.6614 37.573C81.3749 37.573 81.9609 37.2553 82.4192 36.6199H84.4192C84.164 37.4011 83.7187 38.0365 83.0833 38.5261C82.4478 39.0105 81.6353 39.2527 80.6458 39.2527ZM78.5051 33.9792H82.6614C82.578 33.4376 82.3541 32.9949 81.9895 32.6511C81.6301 32.3074 81.1614 32.1355 80.5833 32.1355C80.0416 32.1355 79.5911 32.2996 79.2317 32.6277C78.8775 32.9506 78.6353 33.4011 78.5051 33.9792ZM89.0676 37.6589C89.7083 37.6589 90.2135 37.4949 90.5833 37.1667C90.9583 36.8334 91.1458 36.3829 91.1458 35.8152V35.4167H89.0676C88.1093 35.4167 87.6275 35.7891 87.6223 36.5339C87.6223 36.8621 87.7447 37.1329 87.9895 37.3464C88.2395 37.5548 88.5989 37.6589 89.0676 37.6589ZM88.6614 39.2527C87.7968 39.2527 87.1015 39.0053 86.5754 38.5105C86.0494 38.0157 85.7864 37.3855 85.7864 36.6199C85.7864 35.8647 86.0676 35.2371 86.6301 34.7371C87.1978 34.2319 87.9817 33.9792 88.9817 33.9792H91.1458V33.573C91.1458 33.0938 90.9947 32.7214 90.6926 32.4558C90.3958 32.1902 89.9869 32.0574 89.4661 32.0574C89.0598 32.0574 88.7265 32.1511 88.4661 32.3386C88.2056 32.5261 88.0312 32.7527 87.9426 33.0183H86.052C86.2447 32.2631 86.6405 31.6485 87.2395 31.1746C87.8385 30.6954 88.5806 30.4558 89.4661 30.4558C90.5754 30.4558 91.4374 30.7345 92.052 31.2917C92.6718 31.8438 92.9817 32.6042 92.9817 33.573V39.0964H91.3801L91.2239 38.0574H91.1458C90.9635 38.3751 90.651 38.6537 90.2083 38.8933C89.7655 39.1329 89.2499 39.2527 88.6614 39.2527ZM98.0208 39.0964C97.2655 39.0964 96.677 38.8907 96.2551 38.4792C95.8333 38.0678 95.6223 37.5001 95.6223 36.7761V32.2996H94.2629V30.6199H95.6223L95.8645 28.3777H97.4661V30.6199H99.5442V32.2996H97.4661V36.5339C97.4661 36.7787 97.5442 36.9871 97.7004 37.1589C97.8619 37.3308 98.0754 37.4167 98.3411 37.4167H99.5442V39.0964H98.0208ZM104.724 39.2527C103.474 39.2527 102.484 38.8673 101.755 38.0964C101.026 37.3256 100.661 36.2449 100.661 34.8542C100.661 33.4792 101.023 32.4037 101.747 31.6277C102.471 30.8464 103.443 30.4558 104.661 30.4558C105.901 30.4558 106.878 30.8569 107.591 31.6589C108.305 32.4558 108.661 33.4428 108.661 34.6199L108.583 35.4167H102.583C102.625 36.0678 102.836 36.5912 103.216 36.9871C103.601 37.3777 104.109 37.573 104.74 37.573C105.453 37.573 106.039 37.2553 106.497 36.6199H108.497C108.242 37.4011 107.797 38.0365 107.161 38.5261C106.526 39.0105 105.713 39.2527 104.724 39.2527ZM102.583 33.9792H106.74C106.656 33.4376 106.432 32.9949 106.068 32.6511C105.708 32.3074 105.24 32.1355 104.661 32.1355C104.12 32.1355 103.669 32.2996 103.31 32.6277C102.956 32.9506 102.713 33.4011 102.583 33.9792ZM116.661 37.6589C117.302 37.6589 117.807 37.4949 118.177 37.1667C118.552 36.8334 118.74 36.3829 118.74 35.8152V35.4167H116.661C115.703 35.4167 115.221 35.7891 115.216 36.5339C115.216 36.8621 115.338 37.1329 115.583 37.3464C115.833 37.5548 116.193 37.6589 116.661 37.6589ZM116.255 39.2527C115.391 39.2527 114.695 39.0053 114.169 38.5105C113.643 38.0157 113.38 37.3855 113.38 36.6199C113.38 35.8647 113.661 35.2371 114.224 34.7371C114.792 34.2319 115.575 33.9792 116.575 33.9792H118.74V33.573C118.74 33.0938 118.588 32.7214 118.286 32.4558C117.99 32.1902 117.581 32.0574 117.06 32.0574C116.654 32.0574 116.32 32.1511 116.06 32.3386C115.799 32.5261 115.625 32.7527 115.536 33.0183H113.646C113.838 32.2631 114.234 31.6485 114.833 31.1746C115.432 30.6954 116.174 30.4558 117.06 30.4558C118.169 30.4558 119.031 30.7345 119.646 31.2917C120.266 31.8438 120.575 32.6042 120.575 33.573V39.0964H118.974L118.818 38.0574H118.74C118.557 38.3751 118.245 38.6537 117.802 38.8933C117.359 39.1329 116.844 39.2527 116.255 39.2527ZM122.575 39.0964V30.6199H124.099L124.333 31.6589H124.419C124.898 30.8569 125.672 30.4558 126.74 30.4558C127.667 30.4558 128.417 30.7709 128.99 31.4011C129.568 32.0313 129.857 32.8621 129.857 33.8933V39.0964H128.013V34.0574C128.013 33.4584 127.851 32.9897 127.529 32.6511C127.206 32.3074 126.781 32.1355 126.255 32.1355C125.713 32.1355 125.271 32.323 124.927 32.698C124.588 33.0678 124.419 33.5313 124.419 34.0886V39.0964H122.575ZM138.177 37.6589C138.818 37.6589 139.323 37.4949 139.693 37.1667C140.068 36.8334 140.255 36.3829 140.255 35.8152V35.4167H138.177C137.219 35.4167 136.737 35.7891 136.732 36.5339C136.732 36.8621 136.854 37.1329 137.099 37.3464C137.349 37.5548 137.708 37.6589 138.177 37.6589ZM137.771 39.2527C136.906 39.2527 136.211 39.0053 135.685 38.5105C135.159 38.0157 134.896 37.3855 134.896 36.6199C134.896 35.8647 135.177 35.2371 135.74 34.7371C136.307 34.2319 137.091 33.9792 138.091 33.9792H140.255V33.573C140.255 33.0938 140.104 32.7214 139.802 32.4558C139.505 32.1902 139.096 32.0574 138.575 32.0574C138.169 32.0574 137.836 32.1511 137.575 32.3386C137.315 32.5261 137.141 32.7527 137.052 33.0183H135.161C135.354 32.2631 135.75 31.6485 136.349 31.1746C136.948 30.6954 137.69 30.4558 138.575 30.4558C139.685 30.4558 140.547 30.7345 141.161 31.2917C141.781 31.8438 142.091 32.6042 142.091 33.573V39.0964H140.49L140.333 38.0574H140.255C140.073 38.3751 139.76 38.6537 139.318 38.8933C138.875 39.1329 138.359 39.2527 137.771 39.2527ZM147.693 39.2527C146.479 39.2527 145.508 38.8647 144.779 38.0886C144.055 37.3074 143.693 36.2292 143.693 34.8542C143.693 33.4792 144.055 32.4037 144.779 31.6277C145.503 30.8464 146.474 30.4558 147.693 30.4558C148.682 30.4558 149.503 30.7214 150.154 31.2527C150.805 31.7787 151.237 32.4454 151.45 33.2527H149.615C149.198 32.5079 148.557 32.1355 147.693 32.1355C147.042 32.1355 146.518 32.3725 146.122 32.8464C145.726 33.3204 145.529 33.9897 145.529 34.8542C145.529 35.7188 145.726 36.3881 146.122 36.8621C146.518 37.336 147.042 37.573 147.693 37.573C148.557 37.573 149.198 37.2006 149.615 36.4558H151.45C151.237 37.2683 150.805 37.9376 150.154 38.4636C149.503 38.9897 148.682 39.2527 147.693 39.2527ZM156.568 39.2527C155.354 39.2527 154.383 38.8647 153.654 38.0886C152.93 37.3074 152.568 36.2292 152.568 34.8542C152.568 33.4792 152.93 32.4037 153.654 31.6277C154.378 30.8464 155.349 30.4558 156.568 30.4558C157.557 30.4558 158.378 30.7214 159.029 31.2527C159.68 31.7787 160.112 32.4454 160.325 33.2527H158.49C158.073 32.5079 157.432 32.1355 156.568 32.1355C155.917 32.1355 155.393 32.3725 154.997 32.8464C154.601 33.3204 154.404 33.9897 154.404 34.8542C154.404 35.7188 154.601 36.3881 154.997 36.8621C155.393 37.336 155.917 37.573 156.568 37.573C157.432 37.573 158.073 37.2006 158.49 36.4558H160.325C160.112 37.2683 159.68 37.9376 159.029 38.4636C158.378 38.9897 157.557 39.2527 156.568 39.2527ZM168.349 38.0886C167.625 38.8647 166.654 39.2527 165.435 39.2527C164.221 39.2527 163.253 38.8647 162.529 38.0886C161.805 37.3074 161.443 36.2292 161.443 34.8542C161.443 33.4792 161.805 32.4037 162.529 31.6277C163.253 30.8464 164.221 30.4558 165.435 30.4558C166.654 30.4558 167.625 30.8464 168.349 31.6277C169.078 32.4037 169.443 33.4792 169.443 34.8542C169.443 36.2292 169.078 37.3074 168.349 38.0886ZM163.888 36.8777C164.294 37.3412 164.812 37.573 165.443 37.573C166.073 37.573 166.588 37.3412 166.99 36.8777C167.396 36.4141 167.599 35.7397 167.599 34.8542C167.599 33.9688 167.396 33.2944 166.99 32.8308C166.588 32.3673 166.073 32.1355 165.443 32.1355C164.812 32.1355 164.294 32.3673 163.888 32.8308C163.482 33.2944 163.279 33.9688 163.279 34.8542C163.279 35.7397 163.482 36.4141 163.888 36.8777ZM174.24 39.2527C173.312 39.2527 172.56 38.9402 171.982 38.3152C171.409 37.685 171.122 36.8516 171.122 35.8152V30.6199H172.966V35.6589C172.966 36.2579 173.128 36.7266 173.45 37.0652C173.779 37.4037 174.203 37.573 174.724 37.573C175.266 37.573 175.706 37.3881 176.044 37.0183C176.388 36.6433 176.56 36.1798 176.56 35.6277V30.6199H178.404V39.0964H176.88L176.646 38.0574H176.56C176.081 38.8542 175.307 39.2527 174.24 39.2527ZM180.482 39.0964V30.6199H182.005L182.24 31.6589H182.325C182.805 30.8569 183.578 30.4558 184.646 30.4558C185.573 30.4558 186.323 30.7709 186.896 31.4011C187.474 32.0313 187.763 32.8621 187.763 33.8933V39.0964H185.919V34.0574C185.919 33.4584 185.758 32.9897 185.435 32.6511C185.112 32.3074 184.687 32.1355 184.161 32.1355C183.62 32.1355 183.177 32.323 182.833 32.698C182.495 33.0678 182.325 33.5313 182.325 34.0886V39.0964H180.482ZM192.802 39.0964C192.047 39.0964 191.458 38.8907 191.036 38.4792C190.615 38.0678 190.404 37.5001 190.404 36.7761V32.2996H189.044V30.6199H190.404L190.646 28.3777H192.247V30.6199H194.325V32.2996H192.247V36.5339C192.247 36.7787 192.325 36.9871 192.482 37.1589C192.643 37.3308 192.857 37.4167 193.122 37.4167H194.325V39.0964H192.802Z" fill="#08072B"/>
<rect x="27.2389" y="51.502" width="200.188" height="22.8551" rx="3.58662" fill="white" stroke="#D9D9F0" stroke-width="0.478216"/>
<path d="M34.9688 65.677V59.3752H39.0161V60.2322H35.9136V62.0779H38.8359V62.9304H35.9136V64.8201H39.1084V65.677H34.9688ZM40.1411 65.677V60.9089H40.8179L40.9497 61.5374H40.998C41.3027 61.0569 41.707 60.8167 42.2109 60.8167C42.5361 60.8167 42.813 60.8958 43.0415 61.054C43.2729 61.2092 43.4458 61.4158 43.5601 61.6736H43.6084C43.7461 61.4158 43.9438 61.2092 44.2017 61.054C44.4595 60.8958 44.7568 60.8167 45.0938 60.8167C45.5801 60.8167 45.9785 60.991 46.2891 61.3396C46.5996 61.6882 46.7549 62.1584 46.7549 62.7502V65.677H45.9023V62.7986C45.9023 62.4265 45.8115 62.1379 45.6299 61.9329C45.4512 61.7278 45.2124 61.6252 44.9136 61.6252C44.6323 61.6252 44.3892 61.7336 44.1841 61.9504C43.979 62.1672 43.8765 62.45 43.8765 62.7986V65.677H43.0195V62.7986C43.0195 62.4265 42.9302 62.1379 42.7515 61.9329C42.5728 61.7278 42.3325 61.6252 42.0308 61.6252C41.7495 61.6252 41.5063 61.7336 41.3013 61.9504C41.0991 62.1672 40.998 62.45 40.998 62.7986V65.677H40.1411ZM49.3696 65.0002C49.7651 65.0002 50.0815 64.8918 50.3188 64.675C50.5562 64.4553 50.6748 64.1741 50.6748 63.8313V63.5632H49.4136C49.103 63.5632 48.8672 63.6277 48.7061 63.7566C48.5479 63.8855 48.4688 64.0613 48.4688 64.2839C48.4688 64.5037 48.5479 64.678 48.7061 64.8069C48.8672 64.9358 49.0884 65.0002 49.3696 65.0002ZM49.2334 65.7649C48.7529 65.7649 48.3633 65.6213 48.0645 65.3342C47.7656 65.0471 47.6162 64.697 47.6162 64.2839C47.6162 63.8591 47.7744 63.5061 48.0908 63.2249C48.4102 62.9407 48.8511 62.7986 49.4136 62.7986H50.6748V62.5701C50.6748 62.2771 50.5811 62.0471 50.3936 61.8801C50.209 61.7102 49.957 61.6252 49.6377 61.6252C49.3799 61.6252 49.1704 61.6809 49.0093 61.7922C48.8481 61.9036 48.7427 62.0442 48.6929 62.2141H47.7964C47.8872 61.8186 48.1011 61.4875 48.438 61.2209C48.7778 60.9514 49.1777 60.8167 49.6377 60.8167C50.2324 60.8167 50.6968 60.9778 51.0308 61.3C51.3647 61.6194 51.5317 62.0427 51.5317 62.5701V65.677H50.811L50.7188 65.0925H50.6748C50.5723 65.2654 50.3906 65.4207 50.1299 65.5583C49.8691 65.696 49.5703 65.7649 49.2334 65.7649ZM52.6567 65.677V60.9089H53.5137V65.677H52.6567ZM53.0874 60.3684C52.9204 60.3684 52.7842 60.3157 52.6787 60.2102C52.5732 60.1047 52.5205 59.9714 52.5205 59.8103C52.5205 59.6433 52.5732 59.5071 52.6787 59.4016C52.7842 59.2961 52.9204 59.2434 53.0874 59.2434C53.2485 59.2434 53.3818 59.2961 53.4873 59.4016C53.5928 59.5042 53.6455 59.6404 53.6455 59.8103C53.6455 59.9714 53.5928 60.1047 53.4873 60.2102C53.3818 60.3157 53.2485 60.3684 53.0874 60.3684ZM54.7222 65.677V59.3752H55.5791V65.677H54.7222Z" fill="#BBBBD2"/>
</g>
<defs>
<filter id="filter0_d_85_663" x="0.0562335" y="0.964365" width="251.02" height="99.027" filterUnits="userSpaceOnUse" color-interpolation-filters="sRGB">
<feFlood flood-opacity="0" result="BackgroundImageFix"/>
<feColorMatrix in="SourceAlpha" type="matrix" values="0 0 0 0 0 0 0 0 0 0 0 0 0 0 0 0 0 0 127 0" result="hardAlpha"/>
<feOffset dx="-1.43366" dy="0.477887"/>
<feGaussianBlur stdDeviation="5.25676"/>
<feComposite in2="hardAlpha" operator="out"/>
<feColorMatrix type="matrix" values="0 0 0 0 0.09384 0 0 0 0 0.046 0 0 0 0 0.23 0 0 0 0.05 0"/>
<feBlend mode="normal" in2="BackgroundImageFix" result="effect1_dropShadow_85_663"/>
<feBlend mode="normal" in="SourceGraphic" in2="effect1_dropShadow_85_663" result="shape"/>
</filter>
</defs>
</svg>
