<svg width="252" height="100" viewBox="0 0 252 100" fill="none" xmlns="http://www.w3.org/2000/svg">
<g filter="url(#filter0_d_85_663)">
<rect width="229.979" height="78" rx="13" transform="matrix(1 0 0.000271438 1 12 11)" fill="white"/>
<path d="M64.7533 38.2564C63.1639 38.2564 61.8999 37.7604 60.9613 36.7684C60.0226 35.7658 59.5533 34.3418 59.5533 32.4964C59.5533 30.6511 60.0226 29.2324 60.9613 28.2404C61.8999 27.2378 63.1639 26.7364 64.7533 26.7364C65.9906 26.7364 67.0039 27.0404 67.7933 27.6484C68.5826 28.2564 69.1426 29.0991 69.4733 30.1764H67.3933C66.8813 29.0564 66.0013 28.4964 64.7533 28.4964C63.7719 28.4964 62.9933 28.8431 62.4173 29.5364C61.8413 30.2191 61.5533 31.2058 61.5533 32.4964C61.5533 33.7871 61.8413 34.7791 62.4173 35.4724C62.9933 36.1551 63.7719 36.4964 64.7533 36.4964C66.0013 36.4964 66.8813 35.9364 67.3933 34.8164H69.4733C69.1426 35.8938 68.5826 36.7364 67.7933 37.3444C67.0039 37.9524 65.9906 38.2564 64.7533 38.2564ZM71.0764 38.0964V29.6164H72.5964L72.8364 30.6564H72.9164C73.375 29.9631 74.0684 29.6164 74.9964 29.6164H76.0364V31.3764H75.1564C74.4737 31.3764 73.9297 31.5631 73.5244 31.9364C73.119 32.3098 72.9164 32.8164 72.9164 33.4564V38.0964H71.0764ZM80.6623 38.2564C79.4143 38.2564 78.4223 37.8724 77.6863 37.1044C76.9609 36.3258 76.5983 35.2431 76.5983 33.8564C76.5983 32.4804 76.9609 31.4031 77.6863 30.6244C78.4116 29.8458 79.3823 29.4564 80.5983 29.4564C81.8356 29.4564 82.8116 29.8564 83.5263 30.6564C84.2409 31.4564 84.5983 32.4431 84.5983 33.6164L84.5183 34.4164H78.5183C78.5609 35.0671 78.7743 35.5898 79.1583 35.9844C79.5423 36.3791 80.0489 36.5764 80.6783 36.5764C81.3929 36.5764 81.9796 36.2564 82.4383 35.6164H84.4383C84.1823 36.3951 83.7343 37.0298 83.0943 37.5204C82.4649 38.0111 81.6543 38.2564 80.6623 38.2564ZM78.5183 32.9764H82.6783C82.5929 32.4324 82.3689 31.9898 82.0063 31.6484C81.6436 31.3071 81.1743 31.1364 80.5983 31.1364C80.0543 31.1364 79.6009 31.3018 79.2383 31.6324C78.8863 31.9524 78.6463 32.4004 78.5183 32.9764ZM89.0795 36.6564C89.7195 36.6564 90.2262 36.4911 90.5995 36.1604C90.9728 35.8298 91.1595 35.3818 91.1595 34.8164V34.4164H89.0795C88.1195 34.4164 87.6395 34.7898 87.6395 35.5364C87.6395 35.8671 87.7622 36.1391 88.0075 36.3524C88.2528 36.5551 88.6102 36.6564 89.0795 36.6564ZM88.6795 38.2564C87.8155 38.2564 87.1168 38.0111 86.5835 37.5204C86.0608 37.0191 85.7995 36.3844 85.7995 35.6164C85.7995 34.8591 86.0822 34.2298 86.6475 33.7284C87.2128 33.2271 87.9968 32.9764 88.9995 32.9764H91.1595V32.5764C91.1595 32.0964 91.0102 31.7231 90.7115 31.4564C90.4128 31.1898 90.0022 31.0564 89.4795 31.0564C89.0742 31.0564 88.7382 31.1524 88.4715 31.3444C88.2155 31.5258 88.0448 31.7498 87.9595 32.0164H86.0715C86.2635 31.2591 86.6582 30.6458 87.2555 30.1764C87.8528 29.6964 88.5942 29.4564 89.4795 29.4564C90.5888 29.4564 91.4528 29.7338 92.0715 30.2884C92.6902 30.8431 92.9995 31.6058 92.9995 32.5764V38.0964H91.3995L91.2395 37.0564H91.1595C90.9782 37.3764 90.6635 37.6591 90.2155 37.9044C89.7782 38.1391 89.2662 38.2564 88.6795 38.2564ZM98.0383 38.0964C97.2809 38.0964 96.6889 37.8938 96.2623 37.4884C95.8463 37.0724 95.6383 36.5018 95.6383 35.7764V31.2964H94.2783V29.6164H95.6383L95.8783 27.3764H97.4783V29.6164H99.5583V31.2964H97.4783V35.5364C97.4783 35.7818 97.5583 35.9898 97.7183 36.1604C97.8783 36.3311 98.0916 36.4164 98.3583 36.4164H99.5583V38.0964H98.0383ZM104.74 38.2564C103.492 38.2564 102.5 37.8724 101.764 37.1044C101.039 36.3258 100.676 35.2431 100.676 33.8564C100.676 32.4804 101.039 31.4031 101.764 30.6244C102.49 29.8458 103.46 29.4564 104.676 29.4564C105.914 29.4564 106.89 29.8564 107.604 30.6564C108.319 31.4564 108.676 32.4431 108.676 33.6164L108.596 34.4164H102.596C102.639 35.0671 102.852 35.5898 103.236 35.9844C103.62 36.3791 104.127 36.5764 104.756 36.5764C105.471 36.5764 106.058 36.2564 106.516 35.6164H108.516C108.26 36.3951 107.812 37.0298 107.172 37.5204C106.543 38.0111 105.732 38.2564 104.74 38.2564ZM102.596 32.9764H106.756C106.671 32.4324 106.447 31.9898 106.084 31.6484C105.722 31.3071 105.252 31.1364 104.676 31.1364C104.132 31.1364 103.679 31.3018 103.316 31.6324C102.964 31.9524 102.724 32.4004 102.596 32.9764ZM116.673 36.6564C117.313 36.6564 117.82 36.4911 118.193 36.1604C118.567 35.8298 118.753 35.3818 118.753 34.8164V34.4164H116.673C115.713 34.4164 115.233 34.7898 115.233 35.5364C115.233 35.8671 115.356 36.1391 115.601 36.3524C115.847 36.5551 116.204 36.6564 116.673 36.6564ZM116.273 38.2564C115.409 38.2564 114.711 38.0111 114.177 37.5204C113.655 37.0191 113.393 36.3844 113.393 35.6164C113.393 34.8591 113.676 34.2298 114.241 33.7284C114.807 33.2271 115.591 32.9764 116.593 32.9764H118.753V32.5764C118.753 32.0964 118.604 31.7231 118.305 31.4564C118.007 31.1898 117.596 31.0564 117.073 31.0564C116.668 31.0564 116.332 31.1524 116.065 31.3444C115.809 31.5258 115.639 31.7498 115.553 32.0164H113.665C113.857 31.2591 114.252 30.6458 114.849 30.1764C115.447 29.6964 116.188 29.4564 117.073 29.4564C118.183 29.4564 119.047 29.7338 119.665 30.2884C120.284 30.8431 120.593 31.6058 120.593 32.5764V38.0964H118.993L118.833 37.0564H118.753C118.572 37.3764 118.257 37.6591 117.809 37.9044C117.372 38.1391 116.86 38.2564 116.273 38.2564ZM122.592 38.0964V29.6164H124.112L124.352 30.6564H124.432C124.912 29.8564 125.685 29.4564 126.752 29.4564C127.68 29.4564 128.432 29.7711 129.008 30.4004C129.584 31.0298 129.872 31.8618 129.872 32.8964V38.0964H128.032V33.0564C128.032 32.4591 127.867 31.9898 127.536 31.6484C127.216 31.3071 126.795 31.1364 126.272 31.1364C125.728 31.1364 125.285 31.3231 124.944 31.6964C124.603 32.0698 124.432 32.5338 124.432 33.0884V38.0964H122.592ZM138.189 36.6564C138.829 36.6564 139.336 36.4911 139.709 36.1604C140.082 35.8298 140.269 35.3818 140.269 34.8164V34.4164H138.189C137.229 34.4164 136.749 34.7898 136.749 35.5364C136.749 35.8671 136.872 36.1391 137.117 36.3524C137.362 36.5551 137.72 36.6564 138.189 36.6564ZM137.789 38.2564C136.925 38.2564 136.226 38.0111 135.693 37.5204C135.17 37.0191 134.909 36.3844 134.909 35.6164C134.909 34.8591 135.192 34.2298 135.757 33.7284C136.322 33.2271 137.106 32.9764 138.109 32.9764H140.269V32.5764C140.269 32.0964 140.12 31.7231 139.821 31.4564C139.522 31.1898 139.112 31.0564 138.589 31.0564C138.184 31.0564 137.848 31.1524 137.581 31.3444C137.325 31.5258 137.154 31.7498 137.069 32.0164H135.181C135.373 31.2591 135.768 30.6458 136.365 30.1764C136.962 29.6964 137.704 29.4564 138.589 29.4564C139.698 29.4564 140.562 29.7338 141.181 30.2884C141.8 30.8431 142.109 31.6058 142.109 32.5764V38.0964H140.509L140.349 37.0564H140.269C140.088 37.3764 139.773 37.6591 139.325 37.9044C138.888 38.1391 138.376 38.2564 137.789 38.2564ZM147.708 38.2564C146.492 38.2564 145.521 37.8671 144.796 37.0884C144.07 36.3098 143.708 35.2324 143.708 33.8564C143.708 32.4804 144.07 31.4031 144.796 30.6244C145.521 29.8458 146.492 29.4564 147.708 29.4564C148.7 29.4564 149.521 29.7231 150.172 30.2564C150.822 30.7791 151.254 31.4458 151.468 32.2564H149.628C149.212 31.5098 148.572 31.1364 147.708 31.1364C147.057 31.1364 146.534 31.3764 146.14 31.8564C145.745 32.3258 145.548 32.9924 145.548 33.8564C145.548 34.7204 145.745 35.3924 146.14 35.8724C146.534 36.3418 147.057 36.5764 147.708 36.5764C148.572 36.5764 149.212 36.2031 149.628 35.4564H151.468C151.254 36.2671 150.822 36.9391 150.172 37.4724C149.521 37.9951 148.7 38.2564 147.708 38.2564ZM156.583 38.2564C155.367 38.2564 154.396 37.8671 153.671 37.0884C152.945 36.3098 152.583 35.2324 152.583 33.8564C152.583 32.4804 152.945 31.4031 153.671 30.6244C154.396 29.8458 155.367 29.4564 156.583 29.4564C157.575 29.4564 158.396 29.7231 159.047 30.2564C159.697 30.7791 160.129 31.4458 160.343 32.2564H158.503C158.087 31.5098 157.447 31.1364 156.583 31.1364C155.932 31.1364 155.409 31.3764 155.015 31.8564C154.62 32.3258 154.423 32.9924 154.423 33.8564C154.423 34.7204 154.62 35.3924 155.015 35.8724C155.409 36.3418 155.932 36.5764 156.583 36.5764C157.447 36.5764 158.087 36.2031 158.503 35.4564H160.343C160.129 36.2671 159.697 36.9391 159.047 37.4724C158.396 37.9951 157.575 38.2564 156.583 38.2564ZM168.37 37.0884C167.644 37.8671 166.674 38.2564 165.458 38.2564C164.242 38.2564 163.271 37.8671 162.546 37.0884C161.82 36.3098 161.458 35.2324 161.458 33.8564C161.458 32.4804 161.82 31.4031 162.546 30.6244C163.271 29.8458 164.242 29.4564 165.458 29.4564C166.674 29.4564 167.644 29.8458 168.37 30.6244C169.095 31.4031 169.458 32.4804 169.458 33.8564C169.458 35.2324 169.095 36.3098 168.37 37.0884ZM163.906 35.8884C164.311 36.3471 164.828 36.5764 165.458 36.5764C166.087 36.5764 166.604 36.3471 167.01 35.8884C167.415 35.4191 167.618 34.7418 167.618 33.8564C167.618 32.9711 167.415 32.2991 167.01 31.8404C166.604 31.3711 166.087 31.1364 165.458 31.1364C164.828 31.1364 164.311 31.3711 163.906 31.8404C163.5 32.2991 163.298 32.9711 163.298 33.8564C163.298 34.7418 163.5 35.4191 163.906 35.8884ZM174.259 38.2564C173.331 38.2564 172.579 37.9418 172.003 37.3124C171.427 36.6831 171.139 35.8511 171.139 34.8164V29.6164H172.979V34.6564C172.979 35.2538 173.139 35.7231 173.459 36.0644C173.79 36.4058 174.216 36.5764 174.739 36.5764C175.283 36.5764 175.726 36.3898 176.067 36.0164C176.408 35.6431 176.579 35.1791 176.579 34.6244V29.6164H178.419V38.0964H176.899L176.659 37.0564H176.579C176.099 37.8564 175.326 38.2564 174.259 38.2564ZM180.498 38.0964V29.6164H182.018L182.258 30.6564H182.338C182.818 29.8564 183.592 29.4564 184.658 29.4564C185.586 29.4564 186.338 29.7711 186.914 30.4004C187.49 31.0298 187.778 31.8618 187.778 32.8964V38.0964H185.938V33.0564C185.938 32.4591 185.773 31.9898 185.442 31.6484C185.122 31.3071 184.701 31.1364 184.178 31.1364C183.634 31.1364 183.192 31.3231 182.85 31.6964C182.509 32.0698 182.338 32.5338 182.338 33.0884V38.0964H180.498ZM192.82 38.0964C192.062 38.0964 191.47 37.8938 191.044 37.4884C190.628 37.0724 190.42 36.5018 190.42 35.7764V31.2964H189.06V29.6164H190.42L190.66 27.3764H192.26V29.6164H194.34V31.2964H192.26V35.5364C192.26 35.7818 192.34 35.9898 192.5 36.1604C192.66 36.3311 192.873 36.4164 193.14 36.4164H194.34V38.0964H192.82Z" fill="#08072B"/>
<rect x="27.2389" y="51.502" width="200.188" height="22.8551" rx="3.58662" fill="white" stroke="#D9D9F0" stroke-width="0.478216"/>
<path d="M35.013 65.677V59.377H38.973V60.052H35.778V62.167H38.793V62.842H35.778V65.002H39.063V65.677H35.013ZM40.1866 65.677V60.997H40.7266L40.8166 61.627H40.8616C41.1436 61.147 41.5636 60.907 42.1216 60.907C42.4156 60.907 42.6796 60.982 42.9136 61.132C43.1476 61.282 43.3336 61.492 43.4716 61.762H43.5166C43.8226 61.192 44.3176 60.907 45.0016 60.907C45.4636 60.907 45.8476 61.081 46.1536 61.429C46.4656 61.771 46.6216 62.227 46.6216 62.797V65.677H45.9466V62.797C45.9466 62.401 45.8476 62.092 45.6496 61.87C45.4516 61.648 45.1906 61.537 44.8666 61.537C44.5486 61.537 44.2816 61.657 44.0656 61.897C43.8496 62.137 43.7416 62.437 43.7416 62.797V65.677H43.0666V62.797C43.0666 62.401 42.9676 62.092 42.7696 61.87C42.5716 61.648 42.3106 61.537 41.9866 61.537C41.6866 61.537 41.4226 61.66 41.1946 61.906C40.9726 62.146 40.8616 62.443 40.8616 62.797V65.677H40.1866ZM49.1831 65.137C49.6211 65.137 49.9691 65.014 50.2271 64.768C50.4911 64.516 50.6231 64.204 50.6231 63.832V63.517H49.3181C48.9641 63.517 48.6941 63.589 48.5081 63.733C48.3281 63.877 48.2381 64.075 48.2381 64.327C48.2381 64.573 48.3221 64.771 48.4901 64.921C48.6581 65.065 48.8891 65.137 49.1831 65.137ZM49.1831 65.767C48.6971 65.767 48.3041 65.632 48.0041 65.362C47.7101 65.086 47.5631 64.741 47.5631 64.327C47.5631 63.907 47.7191 63.562 48.0311 63.292C48.3431 63.022 48.7721 62.887 49.3181 62.887H50.6231V62.572C50.6231 62.26 50.5181 62.011 50.3081 61.825C50.1041 61.633 49.8341 61.537 49.4981 61.537C48.9281 61.537 48.5681 61.762 48.4181 62.212H47.6981C47.8061 61.792 48.0191 61.471 48.3371 61.249C48.6551 61.021 49.0421 60.907 49.4981 60.907C50.0561 60.907 50.4941 61.06 50.8121 61.366C51.1361 61.666 51.2981 62.068 51.2981 62.572V65.677H50.7581L50.6681 65.047H50.6231C50.5211 65.227 50.3381 65.392 50.0741 65.542C49.8101 65.692 49.5131 65.767 49.1831 65.767ZM52.5089 65.677V60.997H53.1839V65.677H52.5089ZM53.1839 60.187C53.0939 60.277 52.9829 60.322 52.8509 60.322C52.7189 60.322 52.6049 60.277 52.5089 60.187C52.4189 60.097 52.3739 59.986 52.3739 59.854C52.3739 59.722 52.4189 59.611 52.5089 59.521C52.6049 59.425 52.7189 59.377 52.8509 59.377C52.9829 59.377 53.0939 59.425 53.1839 59.521C53.2739 59.611 53.3189 59.722 53.3189 59.854C53.3189 59.98 53.2739 60.091 53.1839 60.187ZM54.4875 65.677V59.377H55.1625V65.677H54.4875Z" fill="#BBBBD2"/>
</g>
<defs>
<filter id="filter0_d_85_663" x="0.0562335" y="0.964365" width="251.02" height="99.027" filterUnits="userSpaceOnUse" color-interpolation-filters="sRGB">
<feFlood flood-opacity="0" result="BackgroundImageFix"/>
<feColorMatrix in="SourceAlpha" type="matrix" values="0 0 0 0 0 0 0 0 0 0 0 0 0 0 0 0 0 0 127 0" result="hardAlpha"/>
<feOffset dx="-1.43366" dy="0.477887"/>
<feGaussianBlur stdDeviation="5.25676"/>
<feComposite in2="hardAlpha" operator="out"/>
<feColorMatrix type="matrix" values="0 0 0 0 0.09384 0 0 0 0 0.046 0 0 0 0 0.23 0 0 0 0.05 0"/>
<feBlend mode="normal" in2="BackgroundImageFix" result="effect1_dropShadow_85_663"/>
<feBlend mode="normal" in="SourceGraphic" in2="effect1_dropShadow_85_663" result="shape"/>
</filter>
</defs>
</svg>
