<svg width="92" height="16" viewBox="0 0 92 16" fill="none" xmlns="http://www.w3.org/2000/svg">
<path d="M7.99982 13.4042L4.12202 15.8502C3.95071 15.9643 3.77161 16.0132 3.58473 15.9969C3.39785 15.9806 3.23432 15.9154 3.09416 15.8013C2.954 15.6871 2.84499 15.5446 2.76712 15.3737C2.68925 15.2022 2.67368 15.0104 2.7204 14.7984L3.74825 10.1754L0.314289 7.06899C0.158554 6.92222 0.061375 6.75492 0.0227527 6.56706C-0.0164926 6.37986 -0.00496828 6.19657 0.0573258 6.0172C0.11962 5.83782 0.213061 5.69106 0.337649 5.57692C0.462237 5.46277 0.633546 5.38939 0.851575 5.35677L5.38347 4.94095L7.13549 0.587044C7.21336 0.391363 7.33421 0.244602 7.49804 0.146761C7.66126 0.0489204 7.82851 0 7.99982 0C8.17113 0 8.3387 0.0489204 8.50254 0.146761C8.66575 0.244602 8.78629 0.391363 8.86415 0.587044L10.6162 4.94095L15.1481 5.35677C15.3661 5.38939 15.5374 5.46277 15.662 5.57692C15.7866 5.69106 15.88 5.83782 15.9423 6.0172C16.0046 6.19657 16.0165 6.37986 15.9778 6.56706C15.9386 6.75492 15.8411 6.92222 15.6854 7.06899L12.2514 10.1754L13.2792 14.7984C13.326 15.0104 13.3104 15.2022 13.2325 15.3737C13.1547 15.5446 13.0456 15.6871 12.9055 15.8013C12.7653 15.9154 12.6018 15.9806 12.4149 15.9969C12.228 16.0132 12.0489 15.9643 11.8776 15.8502L7.99982 13.4042Z" fill="url(#paint0_linear_85_566)"/>
<path d="M26.9998 13.4042L23.122 15.8502C22.9507 15.9643 22.7716 16.0132 22.5847 15.9969C22.3978 15.9806 22.2343 15.9154 22.0942 15.8013C21.954 15.6871 21.845 15.5446 21.7671 15.3737C21.6893 15.2022 21.6737 15.0104 21.7204 14.7984L22.7483 10.1754L19.3143 7.06899C19.1586 6.92222 19.0614 6.75492 19.0228 6.56706C18.9835 6.37986 18.995 6.19657 19.0573 6.0172C19.1196 5.83782 19.2131 5.69106 19.3376 5.57692C19.4622 5.46277 19.6335 5.38939 19.8516 5.35677L24.3835 4.94095L26.1355 0.587044C26.2134 0.391363 26.3342 0.244602 26.498 0.146761C26.6613 0.0489204 26.8285 0 26.9998 0C27.1711 0 27.3387 0.0489204 27.5025 0.146761C27.6657 0.244602 27.7863 0.391363 27.8642 0.587044L29.6162 4.94095L34.1481 5.35677C34.3661 5.38939 34.5374 5.46277 34.662 5.57692C34.7866 5.69106 34.88 5.83782 34.9423 6.0172C35.0046 6.19657 35.0165 6.37986 34.9778 6.56706C34.9386 6.75492 34.8411 6.92222 34.6854 7.06899L31.2514 10.1754L32.2792 14.7984C32.326 15.0104 32.3104 15.2022 32.2325 15.3737C32.1547 15.5446 32.0456 15.6871 31.9055 15.8013C31.7653 15.9154 31.6018 15.9806 31.4149 15.9969C31.228 16.0132 31.0489 15.9643 30.8776 15.8502L26.9998 13.4042Z" fill="url(#paint1_linear_85_566)"/>
<path d="M45.9998 13.4042L42.122 15.8502C41.9507 15.9643 41.7716 16.0132 41.5847 15.9969C41.3978 15.9806 41.2343 15.9154 41.0942 15.8013C40.954 15.6871 40.845 15.5446 40.7671 15.3737C40.6893 15.2022 40.6737 15.0104 40.7204 14.7984L41.7483 10.1754L38.3143 7.06899C38.1586 6.92222 38.0614 6.75492 38.0228 6.56706C37.9835 6.37986 37.995 6.19657 38.0573 6.0172C38.1196 5.83782 38.2131 5.69106 38.3376 5.57692C38.4622 5.46277 38.6335 5.38939 38.8516 5.35677L43.3835 4.94095L45.1355 0.587044C45.2134 0.391363 45.3342 0.244602 45.498 0.146761C45.6613 0.0489204 45.8285 0 45.9998 0C46.1711 0 46.3387 0.0489204 46.5025 0.146761C46.6657 0.244602 46.7863 0.391363 46.8642 0.587044L48.6162 4.94095L53.1481 5.35677C53.3661 5.38939 53.5374 5.46277 53.662 5.57692C53.7866 5.69106 53.88 5.83782 53.9423 6.0172C54.0046 6.19657 54.0165 6.37986 53.9778 6.56706C53.9386 6.75492 53.8411 6.92222 53.6854 7.06899L50.2514 10.1754L51.2792 14.7984C51.326 15.0104 51.3104 15.2022 51.2325 15.3737C51.1547 15.5446 51.0456 15.6871 50.9055 15.8013C50.7653 15.9154 50.6018 15.9806 50.4149 15.9969C50.228 16.0132 50.0489 15.9643 49.8776 15.8502L45.9998 13.4042Z" fill="url(#paint2_linear_85_566)"/>
<path d="M64.9998 13.4042L61.122 15.8502C60.9507 15.9643 60.7716 16.0132 60.5847 15.9969C60.3978 15.9806 60.2343 15.9154 60.0942 15.8013C59.954 15.6871 59.845 15.5446 59.7671 15.3737C59.6893 15.2022 59.6737 15.0104 59.7204 14.7984L60.7483 10.1754L57.3143 7.06899C57.1586 6.92222 57.0614 6.75492 57.0228 6.56706C56.9835 6.37986 56.995 6.19657 57.0573 6.0172C57.1196 5.83782 57.2131 5.69106 57.3376 5.57692C57.4622 5.46277 57.6335 5.38939 57.8516 5.35677L62.3835 4.94095L64.1355 0.587044C64.2134 0.391363 64.3342 0.244602 64.498 0.146761C64.6613 0.0489204 64.8285 0 64.9998 0C65.1711 0 65.3387 0.0489204 65.5025 0.146761C65.6657 0.244602 65.7863 0.391363 65.8642 0.587044L67.6162 4.94095L72.1481 5.35677C72.3661 5.38939 72.5374 5.46277 72.662 5.57692C72.7866 5.69106 72.88 5.83782 72.9423 6.0172C73.0046 6.19657 73.0165 6.37986 72.9778 6.56706C72.9386 6.75492 72.8411 6.92222 72.6854 7.06899L69.2514 10.1754L70.2792 14.7984C70.326 15.0104 70.3104 15.2022 70.2325 15.3737C70.1547 15.5446 70.0456 15.6871 69.9055 15.8013C69.7653 15.9154 69.6018 15.9806 69.4149 15.9969C69.228 16.0132 69.0489 15.9643 68.8776 15.8502L64.9998 13.4042Z" fill="url(#paint3_linear_85_566)"/>
<path d="M83.9998 13.4042L80.122 15.8502C79.9507 15.9643 79.7716 16.0132 79.5847 15.9969C79.3978 15.9806 79.2343 15.9154 79.0942 15.8013C78.954 15.6871 78.845 15.5446 78.7671 15.3737C78.6893 15.2022 78.6737 15.0104 78.7204 14.7984L79.7483 10.1754L76.3143 7.06899C76.1586 6.92222 76.0614 6.75492 76.0228 6.56706C75.9835 6.37986 75.995 6.19657 76.0573 6.0172C76.1196 5.83782 76.2131 5.69106 76.3376 5.57692C76.4622 5.46277 76.6335 5.38939 76.8516 5.35677L81.3835 4.94095L83.1355 0.587044C83.2134 0.391363 83.3342 0.244602 83.498 0.146761C83.6613 0.0489204 83.8285 0 83.9998 0C84.1711 0 84.3387 0.0489204 84.5025 0.146761C84.6657 0.244602 84.7863 0.391363 84.8642 0.587044L86.6162 4.94095L91.1481 5.35677C91.3661 5.38939 91.5374 5.46277 91.662 5.57692C91.7866 5.69106 91.88 5.83782 91.9423 6.0172C92.0046 6.19657 92.0165 6.37986 91.9778 6.56706C91.9386 6.75492 91.8411 6.92222 91.6854 7.06899L88.2514 10.1754L89.2792 14.7984C89.326 15.0104 89.3104 15.2022 89.2325 15.3737C89.1547 15.5446 89.0456 15.6871 88.9055 15.8013C88.7653 15.9154 88.6018 15.9806 88.4149 15.9969C88.228 16.0132 88.0489 15.9643 87.8776 15.8502L83.9998 13.4042Z" fill="url(#paint4_linear_85_566)"/>
<defs>
<linearGradient id="paint0_linear_85_566" x1="16" y1="0" x2="-19.3005" y2="3.69251" gradientUnits="userSpaceOnUse">
<stop stop-color="#5271FF"/>
<stop offset="1" stop-color="#95FFFF"/>
</linearGradient>
<linearGradient id="paint1_linear_85_566" x1="35" y1="0" x2="-0.300488" y2="3.69251" gradientUnits="userSpaceOnUse">
<stop stop-color="#5271FF"/>
<stop offset="1" stop-color="#95FFFF"/>
</linearGradient>
<linearGradient id="paint2_linear_85_566" x1="54" y1="0" x2="18.6995" y2="3.69251" gradientUnits="userSpaceOnUse">
<stop stop-color="#5271FF"/>
<stop offset="1" stop-color="#95FFFF"/>
</linearGradient>
<linearGradient id="paint3_linear_85_566" x1="73" y1="0" x2="37.6995" y2="3.69251" gradientUnits="userSpaceOnUse">
<stop stop-color="#5271FF"/>
<stop offset="1" stop-color="#95FFFF"/>
</linearGradient>
<linearGradient id="paint4_linear_85_566" x1="92" y1="0" x2="56.6995" y2="3.69251" gradientUnits="userSpaceOnUse">
<stop stop-color="#5271FF"/>
<stop offset="1" stop-color="#95FFFF"/>
</linearGradient>
</defs>
</svg>
