<svg width="16" height="17" viewBox="0 0 16 17" fill="none" xmlns="http://www.w3.org/2000/svg">
<g clip-path="url(#clip0_117_7682)">
<path d="M12.5 14C12.5 14.3989 12.1636 14.8947 11.3119 15.3206C10.4902 15.7314 9.31992 16 8 16C6.68008 16 5.50984 15.7314 4.68807 15.3206C3.8364 14.8947 3.5 14.3989 3.5 14C3.5 13.6011 3.8364 13.1053 4.68807 12.6794C5.50984 12.2686 6.68008 12 8 12C9.31992 12 10.4902 12.2686 11.3119 12.6794C12.1636 13.1053 12.5 13.6011 12.5 14Z" stroke="#9F54FF"/>
<path d="M7.25791 12.9611L6.62946 12.0812C6.15669 11.4194 6.62982 10.5 7.44319 10.5H8.82578C9.68013 10.5 10.141 11.5021 9.58504 12.1508L8.8309 13.0306C8.40833 13.5236 7.63531 13.4894 7.25791 12.9611Z" fill="white"/>
<path d="M7.99975 8.34325C9.55939 8.34325 10.8237 7.07892 10.8237 5.51928C10.8237 3.95965 9.55939 2.69531 7.99975 2.69531C6.44012 2.69531 5.17578 3.95965 5.17578 5.51928C5.17578 7.07892 6.44012 8.34325 7.99975 8.34325Z" fill="#EBEBED"/>
<path fill-rule="evenodd" clip-rule="evenodd" d="M8 0.5C4.96433 0.5 2.5 3.02444 2.5 6.13415C2.5 7.4901 3.32834 9.11751 4.35534 10.568C5.825 12.6441 7.66267 14.3658 7.66267 14.3658C7.85367 14.5447 8.14633 14.5447 8.33733 14.3658C8.33733 14.3658 10.175 12.6441 11.6447 10.568C12.6717 9.11751 13.5 7.4901 13.5 6.13415C13.5 3.02444 11.0357 0.5 8 0.5ZM8 1.52439C10.4837 1.52439 12.5 3.5899 12.5 6.13415C12.5 7.31322 11.7283 8.70537 10.8353 9.96673C9.802 11.4258 8.57967 12.7025 8 13.281C7.42033 12.7025 5.16466 9.96673 5.16466 9.96673C5.16466 9.96673 3.5 7.31322 3.5 6.13415C3.5 3.5899 5.51633 1.52439 8 1.52439Z" fill="#9F54FF"/>
</g>
<defs>
<clipPath id="clip0_117_7682">
<rect width="16" height="16" fill="white" transform="translate(0 0.5)"/>
</clipPath>
</defs>
</svg>
