<svg width="28" height="28" viewBox="0 0 28 28" fill="none" xmlns="http://www.w3.org/2000/svg">
<path d="M25.2185 24.2245L19.2949 18.0637C20.8179 16.2531 21.6524 13.9751 21.6524 11.6036C21.6524 6.0627 17.1444 1.55469 11.6036 1.55469C6.0627 1.55469 1.55469 6.0627 1.55469 11.6036C1.55469 17.1444 6.0627 21.6524 11.6036 21.6524C13.6837 21.6524 15.6659 21.025 17.3607 19.834L23.3293 26.0416C23.5788 26.3007 23.9143 26.4436 24.2739 26.4436C24.6142 26.4436 24.9371 26.3138 25.1822 26.0779C25.703 25.5768 25.7196 24.7458 25.2185 24.2245ZM11.6036 4.17613C15.6991 4.17613 19.031 7.50799 19.031 11.6036C19.031 15.6991 15.6991 19.031 11.6036 19.031C7.50799 19.031 4.17613 15.6991 4.17613 11.6036C4.17613 7.50799 7.50799 4.17613 11.6036 4.17613Z" fill="#08072B"/>
</svg>
