<svg width="16" height="17" viewBox="0 0 16 17" fill="none" xmlns="http://www.w3.org/2000/svg">
<g clip-path="url(#clip0_117_7705)">
<path d="M15.6 7.42799C15.5995 7.42763 15.5992 7.42714 15.5988 7.42677L9.07206 0.900269C8.79386 0.621949 8.42398 0.46875 8.03055 0.46875C7.63712 0.46875 7.26724 0.621949 6.98892 0.900269L0.465594 7.42348C0.463396 7.42567 0.461077 7.42799 0.459002 7.43019C-0.112289 8.00478 -0.111312 8.93703 0.461809 9.51015C0.723651 9.77211 1.06935 9.92373 1.43911 9.93972C1.45424 9.94118 1.46938 9.94191 1.48464 9.94191H1.74465V14.7449C1.74465 15.6955 2.51809 16.4688 3.46865 16.4688H6.02212C6.28103 16.4688 6.49087 16.2588 6.49087 16V12.2344C6.49087 11.8007 6.84378 11.4479 7.2775 11.4479H8.7836C9.21732 11.4479 9.5701 11.8007 9.5701 12.2344V16C9.5701 16.2588 9.77994 16.4688 10.0389 16.4688H12.5923C13.543 16.4688 14.3163 15.6955 14.3163 14.7449V9.94191H14.5575C14.9509 9.94191 15.3207 9.78872 15.5992 9.51027C16.1729 8.9363 16.1731 8.00233 15.6 7.42799ZM14.9362 8.84743C14.835 8.94863 14.7005 9.00441 14.5575 9.00441H13.8476C13.5887 9.00441 13.3788 9.21425 13.3788 9.47316V14.7449C13.3788 15.1785 13.026 15.5313 12.5923 15.5313H10.5076V12.2344C10.5076 11.2838 9.73429 10.5104 8.7836 10.5104H7.2775C6.32681 10.5104 5.55337 11.2838 5.55337 12.2344V15.5313H3.46865C3.03506 15.5313 2.68215 15.1785 2.68215 14.7449V9.47316C2.68215 9.21425 2.47231 9.00441 2.2134 9.00441H1.51564C1.50832 9.00392 1.50112 9.00356 1.49367 9.00344C1.35402 9.00099 1.22304 8.94557 1.1249 8.84731C0.916156 8.63857 0.916156 8.29884 1.1249 8.08998C1.12502 8.08998 1.12502 8.08986 1.12514 8.08974L1.12551 8.08937L7.65201 1.56311C7.75308 1.46192 7.88748 1.40625 8.03055 1.40625C8.17349 1.40625 8.30789 1.46192 8.40909 1.56311L14.9341 8.08803C14.9351 8.089 14.9362 8.08998 14.9372 8.09096C15.1448 8.30006 15.1445 8.63905 14.9362 8.84743Z" fill="#9F54FF"/>
<path d="M4.68774 6.45491L7.29746 3.91746C7.68775 3.53798 8.30989 3.54039 8.69722 3.92288L11.2668 6.46034C11.9029 7.08846 11.4581 8.17188 10.5641 8.17188H5.38485C4.48716 8.17188 4.04413 7.0807 4.68774 6.45491Z" fill="#EBEBED"/>
</g>
<defs>
<clipPath id="clip0_117_7705">
<rect width="16" height="16" fill="white" transform="translate(0 0.5)"/>
</clipPath>
</defs>
</svg>
