<svg width="16" height="17" viewBox="0 0 16 17" fill="none" xmlns="http://www.w3.org/2000/svg">
<g clip-path="url(#clip0_117_7716)">
<path d="M15.9735 13.343L14.4762 4.85134C14.3731 4.2665 13.9833 3.78325 13.4335 3.55869L9.86063 2.09923C9.70676 2.03638 9.54644 1.99751 9.38492 1.98148L9.19201 0.887453C9.14707 0.632517 8.90411 0.462331 8.64901 0.507237C8.39405 0.552174 8.22383 0.795297 8.2688 1.05023L8.46173 2.14438C8.31761 2.21373 8.1822 2.3036 8.06055 2.41316L7.65586 2.77763L7.59586 2.72319C7.47277 2.61151 7.33543 2.52013 7.18912 2.44982L7.43589 1.05023C7.48083 0.795297 7.31061 0.552174 7.05568 0.507237C6.80077 0.462143 6.55762 0.632486 6.51268 0.887453L6.26587 2.28713C6.10671 2.30301 5.94875 2.34116 5.79694 2.40254L2.19183 3.85944C1.6388 4.08293 1.24677 4.56706 1.14318 5.15452L0.026282 11.4889C-0.13828 12.4223 0.487154 13.3154 1.42046 13.48L5.98543 14.2849L6.12553 15.0795C6.27237 15.9124 6.9993 16.5 7.8173 16.5C7.91602 16.5 8.01611 16.4914 8.11661 16.4737L14.5794 15.3342C15.5127 15.1696 16.1381 14.2764 15.9735 13.343ZM14.4166 14.4109L7.9538 15.5504C7.74827 15.5866 7.54099 15.5407 7.37002 15.421C7.19908 15.3013 7.08499 15.1222 7.04874 14.9167L6.9679 14.4582L7.88317 14.6196C7.98402 14.6373 8.08499 14.6461 8.18527 14.6461C8.53467 14.6461 8.87526 14.5394 9.16745 14.3348C9.54354 14.0715 9.79454 13.6775 9.87426 13.2254L10.9917 6.88795C11.0948 6.30308 10.8938 5.71567 10.454 5.31665L8.35361 3.41081L8.68783 3.10982C8.83333 2.97882 9.02189 2.90972 9.21239 2.90972C9.3117 2.90972 9.41157 2.92853 9.50607 2.96713L13.079 4.42659C13.3289 4.52868 13.506 4.74831 13.5529 5.01415L15.0503 13.5058C15.1251 13.9301 14.8408 14.3361 14.4166 14.4109ZM0.949495 11.6517L2.06646 5.3173C2.11355 5.05027 2.29174 4.83021 2.54311 4.72862L6.0879 3.29606L5.98631 3.87231C5.94137 4.12725 6.11159 4.37037 6.36653 4.41531C6.39406 4.42018 6.42143 4.4225 6.44846 4.4225C6.67165 4.4225 6.86943 4.26246 6.90952 4.03506L7.01118 3.45859L9.8241 6.01092C10.024 6.1923 10.1153 6.4593 10.0685 6.72514L8.95104 13.0626C8.91479 13.2681 8.8007 13.4472 8.62976 13.5669C8.45883 13.6866 8.25152 13.7325 8.04599 13.6963L1.58321 12.5568C1.15899 12.4819 0.874714 12.0759 0.949495 11.6517Z" fill="#9F54FF"/>
<path d="M2.83583 10.3032L3.43276 7.05206C3.49415 6.71768 3.72121 6.4374 4.03557 6.30796L5.58921 5.66823C5.95329 5.51831 6.37145 5.596 6.6574 5.86666L7.84106 6.98708C8.08643 7.21934 8.19794 7.55979 8.1375 7.89221L7.53957 11.1808C7.44026 11.727 6.91508 12.0877 6.36964 11.9844L3.63333 11.4663C3.09283 11.3639 2.73649 10.8442 2.83583 10.3032Z" fill="#EBEBED"/>
</g>
<defs>
<clipPath id="clip0_117_7716">
<rect width="16" height="16" fill="white" transform="translate(0 0.5)"/>
</clipPath>
</defs>
</svg>
