<svg width="19" height="19" viewBox="0 0 19 19" fill="none" xmlns="http://www.w3.org/2000/svg">
<mask id="mask0_351_7831" style="mask-type:alpha" maskUnits="userSpaceOnUse" x="0" y="0" width="19" height="19">
<rect width="19" height="19" fill="#D9D9D9"/>
</mask>
<g mask="url(#mask0_351_7831)">
<path d="M9.49984 9.50004C9.93525 9.50004 10.308 9.34501 10.6181 9.03494C10.9281 8.72487 11.0832 8.35212 11.0832 7.91671C11.0832 7.48129 10.9281 7.10855 10.6181 6.79848C10.308 6.48841 9.93525 6.33337 9.49984 6.33337C9.06442 6.33337 8.69168 6.48841 8.38161 6.79848C8.07154 7.10855 7.9165 7.48129 7.9165 7.91671C7.9165 8.35212 8.07154 8.72487 8.38161 9.03494C8.69168 9.34501 9.06442 9.50004 9.49984 9.50004ZM9.49984 15.3188C11.1096 13.841 12.3037 12.4985 13.0821 11.2912C13.8606 10.0839 14.2498 9.01185 14.2498 8.07504C14.2498 6.63685 13.7913 5.45924 12.8743 4.54223C11.9573 3.62521 10.8325 3.16671 9.49984 3.16671C8.1672 3.16671 7.04237 3.62521 6.12536 4.54223C5.20834 5.45924 4.74984 6.63685 4.74984 8.07504C4.74984 9.01185 5.13907 10.0839 5.91755 11.2912C6.69602 12.4985 7.89011 13.841 9.49984 15.3188ZM9.49984 17.4167C7.37553 15.6091 5.7889 13.9301 4.73994 12.3797C3.69098 10.8294 3.1665 9.39448 3.1665 8.07504C3.1665 6.09587 3.80314 4.51914 5.0764 3.34483C6.34966 2.17053 7.82414 1.58337 9.49984 1.58337C11.1755 1.58337 12.65 2.17053 13.9233 3.34483C15.1965 4.51914 15.8332 6.09587 15.8332 8.07504C15.8332 9.39448 15.3087 10.8294 14.2597 12.3797C13.2108 13.9301 11.6241 15.6091 9.49984 17.4167Z" fill="#ABABB8"/>
</g>
</svg>
