<svg width="10" height="10" viewBox="0 0 10 10" fill="none" xmlns="http://www.w3.org/2000/svg">
<g clip-path="url(#clip0_343_91)">
<path d="M4.99968 0.833252C6.04135 0.833252 6.97885 1.20825 7.70801 1.83325C7.25027 2.22412 6.88282 2.70968 6.63104 3.25641C6.37925 3.80314 6.24914 4.398 6.24968 4.99992C6.24968 6.26659 6.81635 7.40409 7.70801 8.16659C6.97885 8.79159 6.04135 9.16658 4.99968 9.16658C3.95801 9.16658 3.02051 8.79159 2.29135 8.16659C2.74909 7.77572 3.11654 7.29015 3.36832 6.74343C3.62011 6.1967 3.75022 5.60184 3.74968 4.99992C3.74968 3.73325 3.18301 2.59575 2.29135 1.83325C3.02051 1.20825 3.95801 0.833252 4.99968 0.833252ZM9.16635 4.99992C9.16635 5.96659 8.83718 6.85408 8.28301 7.56242C7.90715 7.24957 7.60478 6.8578 7.39738 6.41493C7.18999 5.97205 7.08266 5.48895 7.08301 4.99992C7.08301 3.97075 7.54968 3.04992 8.28301 2.43742C8.85665 3.16827 9.16778 4.07083 9.16635 4.99992ZM0.833013 4.99992C0.833013 4.03325 1.16218 3.14575 1.71635 2.43742C2.09221 2.75026 2.39458 3.14204 2.60198 3.58491C2.80937 4.02778 2.9167 4.51089 2.91635 4.99992C2.91635 6.02909 2.44968 6.94992 1.71635 7.56242C1.14271 6.83157 0.831581 5.929 0.833013 4.99992Z" fill="#575757"/>
</g>
<defs>
<clipPath id="clip0_343_91">
<rect width="10" height="10" fill="white"/>
</clipPath>
</defs>
</svg>
