<svg width="10" height="10" viewBox="0 0 10 10" fill="none" xmlns="http://www.w3.org/2000/svg">
<g clip-path="url(#clip0_343_95)">
<path d="M2.92773 0.53125L0.668945 1.1082V2.60742L3.08203 1.83301L3.99414 0.960547L2.92773 0.53125ZM5.52148 1.64453C5.37695 1.64805 5.32422 1.68125 5.53906 1.78379C6.77539 2.375 8.62695 4.03906 7.64258 4.23633C4.53516 4.86328 2.54688 5.70898 0.947461 7.63281C0.496484 8.17578 0.351562 9.66406 0.351562 9.66406H8.80078C8.80078 9.66406 6.08594 9.25195 5.91406 8.18555C5.62305 6.38477 9.71289 6.17969 9.75195 4.28125C9.76953 3.4375 8.02734 1.84004 6.15039 1.69297C6.04102 1.68438 5.70703 1.64004 5.52148 1.64453ZM2.32812 2.44336L1.68965 2.64844V5.03516L2.39258 4.83984L2.32812 2.44336Z" fill="#575757"/>
</g>
<defs>
<clipPath id="clip0_343_95">
<rect width="10" height="10" fill="white"/>
</clipPath>
</defs>
</svg>
