<svg width="21" height="21" viewBox="0 0 21 21" fill="none" xmlns="http://www.w3.org/2000/svg">
<mask id="mask0_227_7770" style="mask-type:alpha" maskUnits="userSpaceOnUse" x="0" y="0" width="21" height="21">
<rect width="21" height="21" fill="#D9D9D9"/>
</mask>
<g mask="url(#mask0_227_7770)">
<path d="M6.125 19.25V15.75H0L3.36875 10.5H1.75L7.875 1.75L10.5 5.5125L13.125 1.75L19.25 10.5H17.6313L21 15.75H14.875V19.25H11.375V15.75H9.625V19.25H6.125ZM14.6344 14H17.8062L14.4156 8.75H15.8812L13.125 4.8125L11.5719 7.02187L14 10.5H12.3812L14.6344 14ZM3.19375 14H12.5563L9.16563 8.75H10.6312L7.875 4.8125L5.11875 8.75H6.58437L3.19375 14ZM3.19375 14H6.58437H5.11875H10.6312H9.16563H12.5563H3.19375ZM14.6344 14H12.3812H14H11.5719H15.8812H14.4156H17.8062H14.6344Z" fill="#5271FF"/>
</g>
</svg>
