<svg width="41" height="41" viewBox="0 0 41 41" fill="none" xmlns="http://www.w3.org/2000/svg">
<circle cx="20.5" cy="20.5" r="20" stroke="#E8E8FA"/>
<g clip-path="url(#clip0_560_7782)">
<path d="M30.4789 16.0284C30.4935 16.2411 30.4935 16.4538 30.4935 16.6686C30.4935 23.2107 25.5773 30.7558 16.588 30.7558V30.7519C13.9325 30.7558 11.3322 29.9852 9.09668 28.5323C9.48281 28.5793 9.87087 28.6029 10.2599 28.6038C12.4606 28.6058 14.5983 27.8578 16.3296 26.4803C14.2383 26.4401 12.4044 25.0588 11.7638 23.0421C12.4964 23.1852 13.2512 23.1558 13.9702 22.9568C11.6902 22.4901 10.0499 20.4607 10.0499 18.1038V18.0411C10.7293 18.4244 11.4899 18.6372 12.268 18.6607C10.1206 17.2068 9.45862 14.3127 10.7554 12.0499C13.2367 15.1431 16.8976 17.0235 20.8276 17.2225C20.4338 15.5029 20.9718 13.7009 22.2415 12.4921C24.2099 10.6176 27.3057 10.7137 29.156 12.7068C30.2505 12.4882 31.2996 12.0813 32.2596 11.5048C31.8947 12.6509 31.1312 13.6244 30.1112 14.2431C31.0799 14.1274 32.0264 13.8646 32.9176 13.4637C32.2615 14.4597 31.4351 15.3274 30.4789 16.0284Z" fill="#1D9BF0"/>
</g>
<defs>
<clipPath id="clip0_560_7782">
<rect width="24" height="20" fill="white" transform="translate(9 11)"/>
</clipPath>
</defs>
</svg>
