<svg width="33" height="33" viewBox="0 0 33 33" fill="none" xmlns="http://www.w3.org/2000/svg">
<mask id="mask0_217_15698" style="mask-type:alpha" maskUnits="userSpaceOnUse" x="0" y="0" width="33" height="33">
<rect x="0.000488281" width="32.8076" height="32.8076" fill="#D9D9D9"/>
</mask>
<g mask="url(#mask0_217_15698)">
<path d="M15.0372 28.7068V25.9728H25.9731V16.2672C25.9731 14.9458 25.7225 13.7041 25.2213 12.5422C24.72 11.3803 24.0365 10.3664 23.1708 9.50066C22.305 8.6349 21.2912 7.95141 20.1292 7.45018C18.9673 6.94896 17.7256 6.69834 16.4042 6.69834C15.0828 6.69834 13.8411 6.94896 12.6792 7.45018C11.5172 7.95141 10.5034 8.6349 9.63765 9.50066C8.77189 10.3664 8.0884 11.3803 7.58717 12.5422C7.08594 13.7041 6.83533 14.9458 6.83533 16.2672V24.6058H5.46834C4.7165 24.6058 4.07311 24.3384 3.53816 23.8034C3.0023 23.2676 2.73438 22.6237 2.73438 21.8719V19.1379C2.73438 18.6139 2.85968 18.1523 3.1103 17.7531C3.36091 17.3549 3.69126 17.0305 4.10136 16.7799L4.20388 14.9686C4.40893 13.3054 4.88191 11.8018 5.62281 10.4576C6.36281 9.11335 7.28552 7.9742 8.39096 7.04009C9.49548 6.10598 10.7372 5.38239 12.116 4.86932C13.4939 4.35716 14.9233 4.10107 16.4042 4.10107C17.9079 4.10107 19.3492 4.35716 20.728 4.86932C22.1059 5.38239 23.3417 6.11145 24.4352 7.05649C25.5288 8.00245 26.4461 9.1416 27.187 10.474C27.927 11.8072 28.3995 13.294 28.6045 14.9344L28.7071 16.7115C29.1172 16.9165 29.4475 17.2182 29.6981 17.6164C29.9488 18.0156 30.0741 18.4544 30.0741 18.9329V22.0769C30.0741 22.5781 29.9488 23.0224 29.6981 23.4097C29.4475 23.797 29.1172 24.0932 28.7071 24.2983V25.9728C28.7071 26.7247 28.4396 27.3685 27.9047 27.9044C27.3688 28.4393 26.7249 28.7068 25.9731 28.7068H15.0372ZM12.3033 19.1379C11.916 19.1379 11.5915 19.0067 11.33 18.7442C11.0675 18.4827 10.9363 18.1582 10.9363 17.7709C10.9363 17.3836 11.0675 17.0587 11.33 16.7963C11.5915 16.5347 11.916 16.4039 12.3033 16.4039C12.6906 16.4039 13.0155 16.5347 13.2779 16.7963C13.5395 17.0587 13.6702 17.3836 13.6702 17.7709C13.6702 18.1582 13.5395 18.4827 13.2779 18.7442C13.0155 19.0067 12.6906 19.1379 12.3033 19.1379ZM20.5052 19.1379C20.1179 19.1379 19.7934 19.0067 19.5319 18.7442C19.2694 18.4827 19.1382 18.1582 19.1382 17.7709C19.1382 17.3836 19.2694 17.0587 19.5319 16.7963C19.7934 16.5347 20.1179 16.4039 20.5052 16.4039C20.8925 16.4039 21.2174 16.5347 21.4798 16.7963C21.7414 17.0587 21.8722 17.3836 21.8722 17.7709C21.8722 18.1582 21.7414 18.4827 21.4798 18.7442C21.2174 19.0067 20.8925 19.1379 20.5052 19.1379ZM8.23649 17.0191C8.14535 15.6749 8.33354 14.456 8.80105 13.3624C9.26765 12.2688 9.89373 11.3402 10.6793 10.5765C11.4658 9.8137 12.3716 9.22726 13.3969 8.81717C14.4221 8.40707 15.4473 8.20203 16.4726 8.20203C18.5458 8.20203 20.3402 8.85727 21.8557 10.1677C23.3704 11.4773 24.2872 13.1118 24.6061 15.0711C22.4645 15.0483 20.528 14.4728 18.7964 13.3446C17.0649 12.2173 15.7549 10.7537 14.8664 8.95387C14.5018 10.7993 13.7331 12.4338 12.5603 13.8572C11.3865 15.2816 9.94522 16.3356 8.23649 17.0191Z" fill="#5271FF"/>
</g>
</svg>
