<svg width="33" height="33" viewBox="0 0 33 33" fill="none" xmlns="http://www.w3.org/2000/svg">
<mask id="mask0_217_15741" style="mask-type:alpha" maskUnits="userSpaceOnUse" x="0" y="0" width="33" height="33">
<rect x="0.000488281" width="32.8076" height="32.8076" fill="#D9D9D9"/>
</mask>
<g mask="url(#mask0_217_15741)">
<path d="M8.88609 21.8718C9.95689 21.8718 10.9994 21.9912 12.0137 22.23C13.0271 22.4697 14.0351 22.8287 15.0375 23.3072V9.84237C14.1034 9.29557 13.1123 8.88548 12.0643 8.61208C11.0163 8.33868 9.95689 8.20199 8.88609 8.20199C8.0659 8.20199 7.25163 8.28173 6.44329 8.44121C5.63403 8.60069 4.85349 8.83991 4.10164 9.15887V22.692C4.89905 22.4186 5.69099 22.2136 6.47746 22.0769C7.26302 21.9402 8.0659 21.8718 8.88609 21.8718ZM17.7715 23.3072C18.7739 22.8287 19.7823 22.4697 20.7966 22.23C21.81 21.9912 22.8521 21.8718 23.9229 21.8718C24.7431 21.8718 25.5464 21.9402 26.3329 22.0769C27.1185 22.2136 27.9099 22.4186 28.7074 22.692V9.15887C27.9555 8.83991 27.1754 8.60069 26.3671 8.44121C25.5578 8.28173 24.7431 8.20199 23.9229 8.20199C22.8521 8.20199 21.7927 8.33868 20.7447 8.61208C19.6967 8.88548 18.7056 9.29557 17.7715 9.84237V23.3072ZM16.4045 27.3398C15.3109 26.474 14.1262 25.8019 12.8503 25.3235C11.5745 24.845 10.2531 24.6058 8.88609 24.6058C7.9292 24.6058 6.98963 24.7311 6.06737 24.9817C5.1442 25.2323 4.26113 25.5855 3.41815 26.0411C2.93971 26.2917 2.47858 26.2803 2.03476 26.007C1.59004 25.7336 1.36768 25.3349 1.36768 24.8108V8.33868C1.36768 8.08807 1.43056 7.84885 1.55632 7.62102C1.68117 7.39319 1.8689 7.22231 2.11952 7.1084C3.16754 6.5616 4.26113 6.15151 5.40028 5.87811C6.53943 5.60472 7.70137 5.46802 8.88609 5.46802C10.2075 5.46802 11.5007 5.63889 12.7656 5.98064C14.0296 6.32238 15.2426 6.835 16.4045 7.51849C17.5664 6.835 18.7799 6.32238 20.0448 5.98064C21.3088 5.63889 22.6015 5.46802 23.9229 5.46802C25.1076 5.46802 26.2696 5.60472 27.4087 5.87811C28.5479 6.15151 29.6415 6.5616 30.6895 7.1084C30.9401 7.22231 31.1283 7.39319 31.254 7.62102C31.3789 7.84885 31.4413 8.08807 31.4413 8.33868V24.8108C31.4413 25.3349 31.2194 25.7336 30.7756 26.007C30.3309 26.2803 29.8693 26.2917 29.3908 26.0411C28.5479 25.5855 27.6648 25.2323 26.7416 24.9817C25.8194 24.7311 24.8798 24.6058 23.9229 24.6058C22.5559 24.6058 21.2345 24.845 19.9587 25.3235C18.6828 25.8019 17.4981 26.474 16.4045 27.3398Z" fill="#5271FF"/>
</g>
</svg>
