<svg width="33" height="33" viewBox="0 0 33 33" fill="none" xmlns="http://www.w3.org/2000/svg">
<mask id="mask0_217_15763" style="mask-type:alpha" maskUnits="userSpaceOnUse" x="0" y="0" width="33" height="33">
<rect x="0.000488281" width="32.8076" height="32.8076" fill="#D9D9D9"/>
</mask>
<g mask="url(#mask0_217_15763)">
<path d="M2.73466 28.7068C2.34735 28.7068 2.02292 28.5756 1.76137 28.3131C1.49891 28.0515 1.36768 27.7271 1.36768 27.3398C1.36768 26.9525 1.49891 26.6281 1.76137 26.3665C2.02292 26.104 2.34735 25.9728 2.73466 25.9728H30.0743C30.4617 25.9728 30.7861 26.104 31.0476 26.3665C31.3101 26.6281 31.4413 26.9525 31.4413 27.3398C31.4413 27.7271 31.3101 28.0515 31.0476 28.3131C30.7861 28.5756 30.4617 28.7068 30.0743 28.7068H2.73466ZM5.46863 24.6058C4.71679 24.6058 4.07339 24.3384 3.53845 23.8034C3.00259 23.2676 2.73466 22.6237 2.73466 21.8719V6.83504C2.73466 6.0832 3.00259 5.43935 3.53845 4.90349C4.07339 4.36855 4.71679 4.10107 5.46863 4.10107H27.3404C28.0922 4.10107 28.7361 4.36855 29.2719 4.90349C29.8069 5.43935 30.0743 6.0832 30.0743 6.83504V21.8719C30.0743 22.6237 29.8069 23.2676 29.2719 23.8034C28.7361 24.3384 28.0922 24.6058 27.3404 24.6058H5.46863ZM5.46863 21.8719H27.3404V6.83504H5.46863V21.8719Z" fill="#5271FF"/>
</g>
</svg>
