<svg width="10" height="10" viewBox="0 0 10 10" fill="none" xmlns="http://www.w3.org/2000/svg">
<path d="M8.33301 4.99997H9.16634V5.8333H8.33301C7.75801 5.8333 7.19134 5.68747 6.66634 5.41663C5.62467 5.9583 4.37467 5.9583 3.33301 5.41663C2.80801 5.68747 2.23717 5.8333 1.66634 5.8333H0.833008V4.99997H1.66634C2.24551 4.99997 2.82467 4.80413 3.33301 4.4458C4.34967 5.1583 5.64967 5.1583 6.66634 4.4458C7.17467 4.80413 7.75384 4.99997 8.33301 4.99997ZM8.33301 2.49997H9.16634V3.3333H8.33301C7.75801 3.3333 7.19134 3.18747 6.66634 2.91663C5.62467 3.4583 4.37467 3.4583 3.33301 2.91663C2.80801 3.18747 2.23717 3.3333 1.66634 3.3333H0.833008V2.49997H1.66634C2.24551 2.49997 2.82467 2.30413 3.33301 1.9458C4.34967 2.6583 5.64967 2.6583 6.66634 1.9458C7.17467 2.30413 7.75384 2.49997 8.33301 2.49997ZM8.33301 7.49997H9.16634V8.3333H8.33301C7.75801 8.3333 7.19134 8.18747 6.66634 7.91663C5.62467 8.4583 4.37467 8.4583 3.33301 7.91663C2.80801 8.18747 2.23717 8.3333 1.66634 8.3333H0.833008V7.49997H1.66634C2.24551 7.49997 2.82467 7.30413 3.33301 6.9458C4.34967 7.6583 5.64967 7.6583 6.66634 6.9458C7.17467 7.30413 7.75384 7.49997 8.33301 7.49997Z" fill="#575757"/>
</svg>
